<svg viewBox="0 0 368.503937008 155.645" width="368.503937008pt" height="155.645pt" xmlns="http://www.w3.org/2000/svg" xmlns:xlink="http://www.w3.org/1999/xlink" xmlns:h5="http://www.w3.org/1999/xhtml"><style>@media (prefers-color-scheme: dark) { [fill="#000000"] { fill: #fff } [stroke="#000000"] { stroke: #fff } }</style><g transform="matrix(1 0 0 -1 8 25.27)"><use xlink:href="#g7F88FEA312F538E521C4F115BA2B3AB9" x="0" y="0" fill="#000000" fill-rule="nonzero"/><use xlink:href="#g41A7E59E335106B9E0FA93E70107FB44" x="6.567" y="0" fill="#000000" fill-rule="nonzero"/><use xlink:href="#gB5B862398E98444E181B37AA0AABBF4C" x="12.485" y="0" fill="#000000" fill-rule="nonzero"/><use xlink:href="#g1865B5D87A146A3189CCF7EEF3310C03" x="20.152" y="0" fill="#000000" fill-rule="nonzero"/><use xlink:href="#g6404042A797276D46759AA380537FD99" x="24.86" y="0" fill="#000000" fill-rule="nonzero"/><use xlink:href="#g1CB9805D2372EBFF7DF2AB4B25C36C02" x="30.404" y="0" fill="#000000" fill-rule="nonzero"/><use xlink:href="#g9123E909261F23E9F8F7C922E250BF87" x="36.036" y="0" fill="#000000" fill-rule="nonzero"/><use xlink:href="#g20E9A46B7E2E5BA882AC0680512EDEF9" x="44.451" y="0" fill="#000000" fill-rule="nonzero"/><use xlink:href="#g4EBF4F5F198E6444D26FB7CBEB3C4DFA" x="53.141" y="0" fill="#000000" fill-rule="nonzero"/><use xlink:href="#g1CB9805D2372EBFF7DF2AB4B25C36C02" x="58.168" y="0" fill="#000000" fill-rule="nonzero"/></g><g transform="translate(74.627 14.6)"><g><path fill="none" stroke="#000000" stroke-width="0.7" stroke-linecap="butt" stroke-linejoin="miter" stroke-miterlimit="4" transform="translate(14.52 11.88)" d="M 0 0m 0 2.64v -2.64"/><path fill="none" stroke="#000000" stroke-width="0.7" stroke-linecap="butt" stroke-linejoin="miter" stroke-miterlimit="4" transform="translate(7.92 1.32)" d="M 0 0m 6.6 10.56c -3.63 -5.808 -6.6 -4.752 -6.6 -10.56"/><path fill="none" stroke="#000000" stroke-width="0.7" stroke-linecap="butt" stroke-linejoin="miter" stroke-miterlimit="4" transform="translate(14.52 1.32)" d="M 0 0m 0 10.56c 3.63 -5.808 6.6 -4.752 6.6 -10.56"/><path fill="#000000" fill-rule="nonzero" transform="translate(13.2 10.56)" d="M 0 0m 1.32 0c -0.72835488 0 -1.32 0.59164512 -1.32 1.32c 0 0.72835488 0.59164512 1.32 1.32 1.32c 0.72835488 0 1.32 -0.59164512 1.32 -1.32c 0 -0.72835488 -0.59164512 -1.32 -1.32 -1.32Z "/></g></g><g transform="matrix(1 0 0 -1 103.667 25.27)"><use xlink:href="#g4EBF4F5F198E6444D26FB7CBEB3C4DFA" x="2.75" y="0" fill="#000000" fill-rule="nonzero"/><use xlink:href="#gF54C15F1181BD23D4736C9950CA14518" x="7.777" y="0" fill="#000000" fill-rule="nonzero"/><use xlink:href="#gE82678A4A19FA45B18615D792DAC19" x="13.739" y="0" fill="#000000" fill-rule="nonzero"/><use xlink:href="#gBFA3AF3A53A3742BAB37A49E4DCB425E" x="22.055" y="0" fill="#000000" fill-rule="nonzero"/><use xlink:href="#g41A7E59E335106B9E0FA93E70107FB44" x="25.531" y="0" fill="#000000" fill-rule="nonzero"/><use xlink:href="#gB5B862398E98444E181B37AA0AABBF4C" x="31.449" y="0" fill="#000000" fill-rule="nonzero"/><use xlink:href="#gE82678A4A19FA45B18615D792DAC19" x="39.116" y="0" fill="#000000" fill-rule="nonzero"/><use xlink:href="#gB7FF8A9F4534A1F9CBA07EC61100E55A" x="44.682" y="0" fill="#000000" fill-rule="nonzero"/><use xlink:href="#gA8BD7121180A19DAA69DC45BA326E63A" x="47.663" y="0" fill="#000000" fill-rule="nonzero"/><use xlink:href="#g1865B5D87A146A3189CCF7EEF3310C03" x="51.953" y="0" fill="#000000" fill-rule="nonzero"/><use xlink:href="#g4EBF4F5F198E6444D26FB7CBEB3C4DFA" x="56.661" y="0" fill="#000000" fill-rule="nonzero"/><use xlink:href="#gC1E8867F5D860CEFC9F4719D6F7593E7" x="61.688" y="0" fill="#000000" fill-rule="nonzero"/><use xlink:href="#gE82678A4A19FA45B18615D792DAC19" x="65.692" y="0" fill="#000000" fill-rule="nonzero"/><use xlink:href="#g20E9A46B7E2E5BA882AC0680512EDEF9" x="74.008" y="0" fill="#000000" fill-rule="nonzero"/><use xlink:href="#g4EBF4F5F198E6444D26FB7CBEB3C4DFA" x="82.698" y="0" fill="#000000" fill-rule="nonzero"/><use xlink:href="#g1CB9805D2372EBFF7DF2AB4B25C36C02" x="87.725" y="0" fill="#000000" fill-rule="nonzero"/></g><g transform="translate(199.851 19.22)"><g><path fill="none" stroke="#000000" stroke-width="0.7" stroke-linecap="butt" stroke-linejoin="miter" stroke-miterlimit="4" transform="translate(7.92 2.64)" d="M 0 0m 0 2.64v -2.64"/><path fill="#000000" fill-rule="nonzero" transform="translate(6.6 1.32)" d="M 0 0m 1.32 0c -0.72835488 0 -1.32 0.59164512 -1.32 1.32c 0 0.72835488 0.59164512 1.32 1.32 1.32c 0.72835488 0 1.32 -0.59164512 1.32 -1.32c 0 -0.72835488 -0.59164512 -1.32 -1.32 -1.32Z "/></g></g><g transform="matrix(1 0 0 -1 215.691 25.27)"><use xlink:href="#gA8BD7121180A19DAA69DC45BA326E63A" x="2.75" y="0" fill="#000000" fill-rule="nonzero"/><use xlink:href="#g4EBF4F5F198E6444D26FB7CBEB3C4DFA" x="7.04" y="0" fill="#000000" fill-rule="nonzero"/><use xlink:href="#gBFA3AF3A53A3742BAB37A49E4DCB425E" x="12.067" y="0" fill="#000000" fill-rule="nonzero"/><use xlink:href="#gB7FF8A9F4534A1F9CBA07EC61100E55A" x="15.543" y="0" fill="#000000" fill-rule="nonzero"/><use xlink:href="#gA8BD7121180A19DAA69DC45BA326E63A" x="18.524" y="0" fill="#000000" fill-rule="nonzero"/><use xlink:href="#g35990208C5C86787361BAC53883799A9" x="22.814" y="0" fill="#000000" fill-rule="nonzero"/><use xlink:href="#g9123E909261F23E9F8F7C922E250BF87" x="26.224" y="0" fill="#000000" fill-rule="nonzero"/></g><g transform="translate(250.33 8)"><g><path fill="none" stroke="#000000" stroke-width="0.7" stroke-linecap="butt" stroke-linejoin="miter" stroke-miterlimit="4" transform="translate(14.52 25.08)" d="M 0 0m 0 2.64v -2.64"/><path fill="none" stroke="#000000" stroke-width="0.7" stroke-linecap="butt" stroke-linejoin="miter" stroke-miterlimit="4" transform="translate(7.92 14.52)" d="M 0 0m 6.6 10.56c -3.63 -5.808 -6.6 -4.752 -6.6 -10.56"/><path fill="none" stroke="#000000" stroke-width="0.7" stroke-linecap="butt" stroke-linejoin="miter" stroke-miterlimit="4" transform="translate(14.52 14.52)" d="M 0 0m 0 10.56c 3.63 -5.808 6.6 -4.752 6.6 -10.56"/><path fill="#000000" fill-rule="nonzero" transform="translate(13.2 23.76)" d="M 0 0m 1.32 0c -0.72835488 0 -1.32 0.59164512 -1.32 1.32c 0 0.72835488 0.59164512 1.32 1.32 1.32c 0.72835488 0 1.32 -0.59164512 1.32 -1.32c 0 -0.72835488 -0.59164512 -1.32 -1.32 -1.32Z "/><path fill="none" stroke="#000000" stroke-width="0.7" stroke-linecap="butt" stroke-linejoin="miter" stroke-miterlimit="4" transform="translate(7.92 1.32)" d="M 0 0m 0 13.2v -13.2"/><path fill="none" stroke="#000000" stroke-width="0.7" stroke-linecap="butt" stroke-linejoin="miter" stroke-miterlimit="4" transform="translate(21.12 11.88)" d="M 0 0m 0 2.64v -2.64"/><path fill="#000000" fill-rule="nonzero" transform="translate(19.8 10.56)" d="M 0 0m 1.32 0c -0.72835488 0 -1.32 0.59164512 -1.32 1.32c 0 0.72835488 0.59164512 1.32 1.32 1.32c 0.72835488 0 1.32 -0.59164512 1.32 -1.32c 0 -0.72835488 -0.59164512 -1.32 -1.32 -1.32Z "/></g></g><g transform="matrix(1 0 0 -1 279.37 25.27)"/><g transform="matrix(1 0 0 -1 282.12 25.27)"><use xlink:href="#g4409E2CB062F4B2A6E5513C033F25B3C" x="0" y="0" fill="#000000" fill-rule="nonzero"/></g><g transform="matrix(1 0 0 -1 290.678 25.27)"/><g transform="translate(293.428 14.6)"><g><path fill="none" stroke="#000000" stroke-width="0.7" stroke-linecap="butt" stroke-linejoin="miter" stroke-miterlimit="4" transform="translate(7.92 1.32)" d="M 0 0m 0 13.2v -13.2"/></g></g><g transform="matrix(1 0 0 -1 309.268 25.27)"><use xlink:href="#gC9F44775914DF44E9F60747E9966B3D5" x="0" y="0" fill="#000000" fill-rule="nonzero"/><use xlink:href="#gA8BD7121180A19DAA69DC45BA326E63A" x="5.17" y="0" fill="#000000" fill-rule="nonzero"/><use xlink:href="#g6404042A797276D46759AA380537FD99" x="9.46" y="0" fill="#000000" fill-rule="nonzero"/><use xlink:href="#gB5B862398E98444E181B37AA0AABBF4C" x="17.754" y="0" fill="#000000" fill-rule="nonzero"/><use xlink:href="#g138C8AF53CF18AB5E1D9DC74E04E09E4" x="22.594" y="0" fill="#000000" fill-rule="nonzero"/><use xlink:href="#gB5B862398E98444E181B37AA0AABBF4C" x="27.973" y="0" fill="#000000" fill-rule="nonzero"/><use xlink:href="#gC1E8867F5D860CEFC9F4719D6F7593E7" x="32.89" y="0" fill="#000000" fill-rule="nonzero"/><use xlink:href="#g9123E909261F23E9F8F7C922E250BF87" x="37.147" y="0" fill="#000000" fill-rule="nonzero"/></g><g transform="matrix(1 0 0 -1 8 71.14)"><use xlink:href="#g6404042A797276D46759AA380537FD99" x="0" y="0" fill="#000000" fill-rule="nonzero"/><use xlink:href="#gDD180C16C8E1BD5E6D015243F425524D" x="5.544" y="0" fill="#000000" fill-rule="nonzero"/><use xlink:href="#g47949B58F039273EC9D2EEBA5CD07B6B" x="10.967" y="0" fill="#000000" fill-rule="nonzero"/><use xlink:href="#gB5B862398E98444E181B37AA0AABBF4C" x="13.959" y="0" fill="#000000" fill-rule="nonzero"/><use xlink:href="#g1865B5D87A146A3189CCF7EEF3310C03" x="18.953" y="0" fill="#000000" fill-rule="nonzero"/><use xlink:href="#gBFA3AF3A53A3742BAB37A49E4DCB425E" x="23.661" y="0" fill="#000000" fill-rule="nonzero"/><use xlink:href="#gB7FF8A9F4534A1F9CBA07EC61100E55A" x="29.887" y="0" fill="#000000" fill-rule="nonzero"/><use xlink:href="#gA8BD7121180A19DAA69DC45BA326E63A" x="32.868" y="0" fill="#000000" fill-rule="nonzero"/><use xlink:href="#g4EBF4F5F198E6444D26FB7CBEB3C4DFA" x="39.908" y="0" fill="#000000" fill-rule="nonzero"/><use xlink:href="#g1865B5D87A146A3189CCF7EEF3310C03" x="47.685" y="0" fill="#000000" fill-rule="nonzero"/><use xlink:href="#g6404042A797276D46759AA380537FD99" x="52.393" y="0" fill="#000000" fill-rule="nonzero"/><use xlink:href="#g20E9A46B7E2E5BA882AC0680512EDEF9" x="57.937" y="0" fill="#000000" fill-rule="nonzero"/><use xlink:href="#g6404042A797276D46759AA380537FD99" x="66.627" y="0" fill="#000000" fill-rule="nonzero"/><use xlink:href="#gF54C15F1181BD23D4736C9950CA14518" x="72.171" y="0" fill="#000000" fill-rule="nonzero"/><use xlink:href="#g6404042A797276D46759AA380537FD99" x="78.133" y="0" fill="#000000" fill-rule="nonzero"/><use xlink:href="#gB7FF8A9F4534A1F9CBA07EC61100E55A" x="83.677" y="0" fill="#000000" fill-rule="nonzero"/><use xlink:href="#gE82678A4A19FA45B18615D792DAC19" x="86.658" y="0" fill="#000000" fill-rule="nonzero"/><use xlink:href="#g38220E3131EA31BE6279C8F5AE0B1E9C" x="92.224" y="0" fill="#000000" fill-rule="nonzero"/><use xlink:href="#gF704619BE1FB4AE183D45F896E826F43" x="97.394" y="0" fill="#000000" fill-rule="nonzero"/><use xlink:href="#gBFA3AF3A53A3742BAB37A49E4DCB425E" x="105.039" y="0" fill="#000000" fill-rule="nonzero"/><use xlink:href="#gBFA3AF3A53A3742BAB37A49E4DCB425E" x="111.265" y="0" fill="#000000" fill-rule="nonzero"/><use xlink:href="#g41A7E59E335106B9E0FA93E70107FB44" x="114.741" y="0" fill="#000000" fill-rule="nonzero"/><use xlink:href="#gB5B862398E98444E181B37AA0AABBF4C" x="120.659" y="0" fill="#000000" fill-rule="nonzero"/><use xlink:href="#gE82678A4A19FA45B18615D792DAC19" x="128.326" y="0" fill="#000000" fill-rule="nonzero"/><use xlink:href="#gB5B862398E98444E181B37AA0AABBF4C" x="133.892" y="0" fill="#000000" fill-rule="nonzero"/><use xlink:href="#g35990208C5C86787361BAC53883799A9" x="138.809" y="0" fill="#000000" fill-rule="nonzero"/><use xlink:href="#g4EBF4F5F198E6444D26FB7CBEB3C4DFA" x="142.219" y="0" fill="#000000" fill-rule="nonzero"/><use xlink:href="#g45E6567A618B9E8D89237F4BAC3479AC" x="147.246" y="0" fill="#000000" fill-rule="nonzero"/><use xlink:href="#g6EFDE41F5574075B950AEF91777E0959" x="153.087" y="0" fill="#000000" fill-rule="nonzero"/><use xlink:href="#gBFA3AF3A53A3742BAB37A49E4DCB425E" x="155.991" y="0" fill="#000000" fill-rule="nonzero"/><use xlink:href="#gA8BD7121180A19DAA69DC45BA326E63A" x="162.217" y="0" fill="#000000" fill-rule="nonzero"/><use xlink:href="#gB7FF8A9F4534A1F9CBA07EC61100E55A" x="166.507" y="0" fill="#000000" fill-rule="nonzero"/><use xlink:href="#g7CA5A814DE99CD852700ECD9D21CDFF4" x="169.488" y="0" fill="#000000" fill-rule="nonzero"/><use xlink:href="#gB5B862398E98444E181B37AA0AABBF4C" x="174.152" y="0" fill="#000000" fill-rule="nonzero"/><use xlink:href="#gBFA3AF3A53A3742BAB37A49E4DCB425E" x="181.819" y="0" fill="#000000" fill-rule="nonzero"/><use xlink:href="#g41A7E59E335106B9E0FA93E70107FB44" x="185.295" y="0" fill="#000000" fill-rule="nonzero"/><use xlink:href="#gB5B862398E98444E181B37AA0AABBF4C" x="191.213" y="0" fill="#000000" fill-rule="nonzero"/><use xlink:href="#gA8BD7121180A19DAA69DC45BA326E63A" x="198.88" y="0" fill="#000000" fill-rule="nonzero"/><use xlink:href="#g4EBF4F5F198E6444D26FB7CBEB3C4DFA" x="203.17" y="0" fill="#000000" fill-rule="nonzero"/><use xlink:href="#g20E9A46B7E2E5BA882AC0680512EDEF9" x="208.197" y="0" fill="#000000" fill-rule="nonzero"/><use xlink:href="#gB5B862398E98444E181B37AA0AABBF4C" x="216.887" y="0" fill="#000000" fill-rule="nonzero"/><use xlink:href="#gE82678A4A19FA45B18615D792DAC19" x="224.554" y="0" fill="#000000" fill-rule="nonzero"/><use xlink:href="#gB7FF8A9F4534A1F9CBA07EC61100E55A" x="230.12" y="0" fill="#000000" fill-rule="nonzero"/><use xlink:href="#g4EBF4F5F198E6444D26FB7CBEB3C4DFA" x="233.101" y="0" fill="#000000" fill-rule="nonzero"/><use xlink:href="#gF01F2FDC4FF130235E6F713DB163FD1F" x="238.128" y="0" fill="#000000" fill-rule="nonzero"/><use xlink:href="#gC1E8867F5D860CEFC9F4719D6F7593E7" x="243.628" y="0" fill="#000000" fill-rule="nonzero"/><use xlink:href="#g4EBF4F5F198E6444D26FB7CBEB3C4DFA" x="247.72" y="0" fill="#000000" fill-rule="nonzero"/><use xlink:href="#g20E9A46B7E2E5BA882AC0680512EDEF9" x="252.747" y="0" fill="#000000" fill-rule="nonzero"/><use xlink:href="#gC9F44775914DF44E9F60747E9966B3D5" x="261.437" y="0" fill="#000000" fill-rule="nonzero"/></g><g transform="translate(274.607 44.19)"><g><path fill="none" stroke="#000000" stroke-width="0.7" stroke-linecap="butt" stroke-linejoin="miter" stroke-miterlimit="4" transform="translate(24.2 41.8)" d="M 0 0m 0 4.4v -4.4"/><path fill="none" stroke="#000000" stroke-width="0.7" stroke-linecap="butt" stroke-linejoin="miter" stroke-miterlimit="4" transform="translate(13.2 24.2)" d="M 0 0m 11 17.6c -6.05 -9.68 -11 -7.92 -11 -17.6"/><path fill="none" stroke="#000000" stroke-width="0.7" stroke-linecap="butt" stroke-linejoin="miter" stroke-miterlimit="4" transform="translate(24.2 24.2)" d="M 0 0m 0 17.6c 6.05 -9.68 11 -7.92 11 -17.6"/><path fill="#000000" fill-rule="nonzero" transform="translate(22 39.6)" d="M 0 0m 2.2 0c -1.2139248 0 -2.2 0.9860752 -2.2 2.2c 0 1.2139248 0.9860752 2.2 2.2 2.2c 1.2139248 0 2.2 -0.9860752 2.2 -2.2c 0 -1.2139248 -0.9860752 -2.2 -2.2 -2.2Z "/><path fill="none" stroke="#000000" stroke-width="0.7" stroke-linecap="butt" stroke-linejoin="miter" stroke-miterlimit="4" transform="translate(13.2 2.2)" d="M 0 0m 0 22v -22"/><path fill="none" stroke="#000000" stroke-width="0.7" stroke-linecap="butt" stroke-linejoin="miter" stroke-miterlimit="4" transform="translate(35.2 19.8)" d="M 0 0m 0 4.4v -4.4"/><path fill="#000000" fill-rule="nonzero" transform="translate(33 17.6)" d="M 0 0m 2.2 0c -1.2139248 0 -2.2 0.9860752 -2.2 2.2c 0 1.2139248 0.9860752 2.2 2.2 2.2c 1.2139248 0 2.2 -0.9860752 2.2 -2.2c 0 -1.2139248 -0.9860752 -2.2 -2.2 -2.2Z "/></g></g><g transform="matrix(1 0 0 -1 323.007 71.14)"><use xlink:href="#gC9F44775914DF44E9F60747E9966B3D5" x="0" y="0" fill="#000000" fill-rule="nonzero"/><use xlink:href="#gB7FF8A9F4534A1F9CBA07EC61100E55A" x="5.17" y="0" fill="#000000" fill-rule="nonzero"/><use xlink:href="#gA8BD7121180A19DAA69DC45BA326E63A" x="8.151" y="0" fill="#000000" fill-rule="nonzero"/><use xlink:href="#gBFA3AF3A53A3742BAB37A49E4DCB425E" x="15.191" y="0" fill="#000000" fill-rule="nonzero"/><use xlink:href="#g6404042A797276D46759AA380537FD99" x="18.667" y="0" fill="#000000" fill-rule="nonzero"/><use xlink:href="#g6404042A797276D46759AA380537FD99" x="24.288" y="0" fill="#000000" fill-rule="nonzero"/></g><g transform="matrix(1 0 0 -1 8 126.4425)"><use xlink:href="#gBFA3AF3A53A3742BAB37A49E4DCB425E" x="0" y="0" fill="#000000" fill-rule="nonzero"/><use xlink:href="#g4EBF4F5F198E6444D26FB7CBEB3C4DFA" x="3.476" y="0" fill="#000000" fill-rule="nonzero"/><use xlink:href="#g6EFDE41F5574075B950AEF91777E0959" x="8.503" y="0" fill="#000000" fill-rule="nonzero"/><use xlink:href="#g6EFDE41F5574075B950AEF91777E0959" x="11.407" y="0" fill="#000000" fill-rule="nonzero"/><use xlink:href="#g35990208C5C86787361BAC53883799A9" x="17.061" y="0" fill="#000000" fill-rule="nonzero"/><use xlink:href="#g6404042A797276D46759AA380537FD99" x="20.471" y="0" fill="#000000" fill-rule="nonzero"/><use xlink:href="#gC1E8867F5D860CEFC9F4719D6F7593E7" x="26.015" y="0" fill="#000000" fill-rule="nonzero"/><use xlink:href="#g4EBF4F5F198E6444D26FB7CBEB3C4DFA" x="32.857" y="0" fill="#000000" fill-rule="nonzero"/><use xlink:href="#g6EFDE41F5574075B950AEF91777E0959" x="40.634" y="0" fill="#000000" fill-rule="nonzero"/><use xlink:href="#gB7FF8A9F4534A1F9CBA07EC61100E55A" x="43.538" y="0" fill="#000000" fill-rule="nonzero"/><use xlink:href="#gF54C15F1181BD23D4736C9950CA14518" x="46.519" y="0" fill="#000000" fill-rule="nonzero"/><use xlink:href="#gB5B862398E98444E181B37AA0AABBF4C" x="52.481" y="0" fill="#000000" fill-rule="nonzero"/><use xlink:href="#g6404042A797276D46759AA380537FD99" x="60.148" y="0" fill="#000000" fill-rule="nonzero"/><use xlink:href="#g35990208C5C86787361BAC53883799A9" x="65.692" y="0" fill="#000000" fill-rule="nonzero"/><use xlink:href="#gBFA3AF3A53A3742BAB37A49E4DCB425E" x="71.852" y="0" fill="#000000" fill-rule="nonzero"/><use xlink:href="#gB5B862398E98444E181B37AA0AABBF4C" x="75.328" y="0" fill="#000000" fill-rule="nonzero"/><use xlink:href="#g17D9EEE4A7ACCA80D5EF39A4548088F8" x="80.168" y="0" fill="#000000" fill-rule="nonzero"/><use xlink:href="#gBFA3AF3A53A3742BAB37A49E4DCB425E" x="85.558" y="0" fill="#000000" fill-rule="nonzero"/><use xlink:href="#g38220E3131EA31BE6279C8F5AE0B1E9C" x="89.034" y="0" fill="#000000" fill-rule="nonzero"/><use xlink:href="#gF704619BE1FB4AE183D45F896E826F43" x="94.204" y="0" fill="#000000" fill-rule="nonzero"/><use xlink:href="#g6EFDE41F5574075B950AEF91777E0959" x="104.599" y="0" fill="#000000" fill-rule="nonzero"/><use xlink:href="#g4EBF4F5F198E6444D26FB7CBEB3C4DFA" x="107.503" y="0" fill="#000000" fill-rule="nonzero"/><use xlink:href="#gDD180C16C8E1BD5E6D015243F425524D" x="112.53" y="0" fill="#000000" fill-rule="nonzero"/><use xlink:href="#gB5B862398E98444E181B37AA0AABBF4C" x="118.063" y="0" fill="#000000" fill-rule="nonzero"/><use xlink:href="#g6EFDE41F5574075B950AEF91777E0959" x="122.98" y="0" fill="#000000" fill-rule="nonzero"/><use xlink:href="#g6EFDE41F5574075B950AEF91777E0959" x="125.884" y="0" fill="#000000" fill-rule="nonzero"/><use xlink:href="#gB5B862398E98444E181B37AA0AABBF4C" x="128.788" y="0" fill="#000000" fill-rule="nonzero"/><use xlink:href="#gE82678A4A19FA45B18615D792DAC19" x="133.782" y="0" fill="#000000" fill-rule="nonzero"/><use xlink:href="#gE82678A4A19FA45B18615D792DAC19" x="142.098" y="0" fill="#000000" fill-rule="nonzero"/><use xlink:href="#gB7FF8A9F4534A1F9CBA07EC61100E55A" x="147.664" y="0" fill="#000000" fill-rule="nonzero"/><use xlink:href="#g4EBF4F5F198E6444D26FB7CBEB3C4DFA" x="150.645" y="0" fill="#000000" fill-rule="nonzero"/><use xlink:href="#gF01F2FDC4FF130235E6F713DB163FD1F" x="155.672" y="0" fill="#000000" fill-rule="nonzero"/><use xlink:href="#gC1E8867F5D860CEFC9F4719D6F7593E7" x="161.172" y="0" fill="#000000" fill-rule="nonzero"/><use xlink:href="#g4EBF4F5F198E6444D26FB7CBEB3C4DFA" x="165.264" y="0" fill="#000000" fill-rule="nonzero"/><use xlink:href="#g20E9A46B7E2E5BA882AC0680512EDEF9" x="170.291" y="0" fill="#000000" fill-rule="nonzero"/><use xlink:href="#g4EBF4F5F198E6444D26FB7CBEB3C4DFA" x="181.731" y="0" fill="#000000" fill-rule="nonzero"/><use xlink:href="#g6EFDE41F5574075B950AEF91777E0959" x="186.758" y="0" fill="#000000" fill-rule="nonzero"/><use xlink:href="#gA8BD7121180A19DAA69DC45BA326E63A" x="189.662" y="0" fill="#000000" fill-rule="nonzero"/><use xlink:href="#g6404042A797276D46759AA380537FD99" x="193.952" y="0" fill="#000000" fill-rule="nonzero"/><use xlink:href="#g4A1522F4BB70BCFE3B34986505278704" x="202.246" y="0" fill="#000000" fill-rule="nonzero"/><use xlink:href="#g4EBF4F5F198E6444D26FB7CBEB3C4DFA" x="210.463" y="0" fill="#000000" fill-rule="nonzero"/><use xlink:href="#gF54C15F1181BD23D4736C9950CA14518" x="215.49" y="0" fill="#000000" fill-rule="nonzero"/><use xlink:href="#gBFA3AF3A53A3742BAB37A49E4DCB425E" x="221.452" y="0" fill="#000000" fill-rule="nonzero"/><use xlink:href="#gA8BD7121180A19DAA69DC45BA326E63A" x="224.928" y="0" fill="#000000" fill-rule="nonzero"/><use xlink:href="#gA8BD7121180A19DAA69DC45BA326E63A" x="231.968" y="0" fill="#000000" fill-rule="nonzero"/><use xlink:href="#g20E9A46B7E2E5BA882AC0680512EDEF9" x="236.258" y="0" fill="#000000" fill-rule="nonzero"/><use xlink:href="#g4EBF4F5F198E6444D26FB7CBEB3C4DFA" x="244.948" y="0" fill="#000000" fill-rule="nonzero"/><use xlink:href="#g6EFDE41F5574075B950AEF91777E0959" x="249.975" y="0" fill="#000000" fill-rule="nonzero"/><use xlink:href="#g6EFDE41F5574075B950AEF91777E0959" x="252.879" y="0" fill="#000000" fill-rule="nonzero"/><use xlink:href="#gB5B862398E98444E181B37AA0AABBF4C" x="255.783" y="0" fill="#000000" fill-rule="nonzero"/><use xlink:href="#gC1E8867F5D860CEFC9F4719D6F7593E7" x="260.7" y="0" fill="#000000" fill-rule="nonzero"/><use xlink:href="#g6EFDE41F5574075B950AEF91777E0959" x="267.542" y="0" fill="#000000" fill-rule="nonzero"/><use xlink:href="#g4EBF4F5F198E6444D26FB7CBEB3C4DFA" x="270.446" y="0" fill="#000000" fill-rule="nonzero"/><use xlink:href="#gDD180C16C8E1BD5E6D015243F425524D" x="275.473" y="0" fill="#000000" fill-rule="nonzero"/><use xlink:href="#gB5B862398E98444E181B37AA0AABBF4C" x="281.006" y="0" fill="#000000" fill-rule="nonzero"/><use xlink:href="#g6EFDE41F5574075B950AEF91777E0959" x="285.923" y="0" fill="#000000" fill-rule="nonzero"/><use xlink:href="#gA8BD7121180A19DAA69DC45BA326E63A" x="288.827" y="0" fill="#000000" fill-rule="nonzero"/><use xlink:href="#gD699A19803546147A3F97CE067D84EAA" x="293.117" y="0" fill="#000000" fill-rule="nonzero"/></g><g transform="translate(306.463 99.74)"><g><path fill="none" stroke="#000000" stroke-width="0.7" stroke-linecap="butt" stroke-linejoin="miter" stroke-miterlimit="4" transform="translate(10.3026 32.175)" d="M 0 0m 0 14.3v -14.3"/><path fill="none" transform="translate(11.7326 36.3198)" d="M 0 0h 7.7352v 6.0104h -7.7352v -6.0104Z "/><g transform="translate(11.732599978 36.319799945)"><g transform="matrix(1 0 0 -1 0 6.0104)"><use xlink:href="#g437312F88EA8CC1A07B4EDFF2BA6F168" x="0" y="0" fill="#000000" fill-rule="nonzero"/></g></g><path fill="none" stroke="#000000" stroke-width="0.7" stroke-linecap="butt" stroke-linejoin="miter" stroke-miterlimit="4" transform="translate(10.3026 29.315)" d="M 0 0m 0 2.86v -2.86"/><path fill="none" stroke="#000000" stroke-width="0.7" stroke-linecap="butt" stroke-linejoin="miter" stroke-miterlimit="4" transform="translate(10.3026 15.73)" d="M 0 0m 0 2.86v -2.86"/><path fill="none" stroke="#000000" stroke-width="0.6" stroke-linecap="butt" stroke-linejoin="miter" stroke-miterlimit="4" transform="translate(4.5826 18.59)" d="M 0 0v 10.725h 11.44v -10.725h -11.44Z "/><path fill="none" transform="translate(7.7506 20.0453)" d="M 0 0h 5.104v 7.8144h -5.104v -7.8144Z "/><g transform="translate(7.750599978 20.045299989)"><g transform="matrix(1 0 0 -1 0 6.0104)"><use xlink:href="#gE07EA83574030CE9505336F36CB0D245" x="0" y="0" fill="#000000" fill-rule="nonzero"/></g></g><path fill="none" stroke="#000000" stroke-width="0.7" stroke-linecap="butt" stroke-linejoin="miter" stroke-miterlimit="4" transform="translate(10.3026 1.43)" d="M 0 0m 0 14.3v -14.3"/><path fill="none" transform="translate(11.7326 5.5704)" d="M 0 0h 6.952v 6.0192h -6.952v -6.0192Z "/><g transform="translate(11.732599973 5.570399978)"><g transform="matrix(1 0 0 -1 0 6.0104)"><use xlink:href="#g9EBE2E3C62DB795A1A17D6A6503D7CC8" x="0" y="0" fill="#000000" fill-rule="nonzero"/></g></g></g></g><g transform="matrix(1 0 0 -1 327.3608 126.4425)"><use xlink:href="#g38220E3131EA31BE6279C8F5AE0B1E9C" x="0" y="0" fill="#000000" fill-rule="nonzero"/></g><defs><symbol id="g7F88FEA312F538E521C4F115BA2B3AB9" overflow="visible"><path d="M 0 0m 3.85 1.342q 0 -0.451 0.0825 -0.66q 0.0825 -0.209 0.3135 -0.264q 0.231 -0.055 0.671 -0.077q 0.055 -0.044 0.055 -0.176q 0 -0.132 -0.055 -0.187q -0.407 0.011 -0.8085 0.0165q -0.4015 0.0055 -0.7205 0.0055q -0.33 0 -0.7315 -0.0055q -0.4015 -0.0055 -0.8085 -0.0165q -0.044 0.055 -0.044 0.187q 0 0.132 0.044 0.176q 0.44 0.022 0.671 0.077q 0.231 0.055 0.3135 0.264q 0.0825 0.209 0.0825 0.66v 4.235q 0 0.506 -0.1045 0.7975q -0.1045 0.2915 -0.4125 0.2915h -0.539q -0.539 0 -0.913 -0.253q -0.374 -0.253 -0.539 -0.913q -0.099 0 -0.1925 0.011q -0.0935 0.011 -0.1815 0.044q 0.088 0.396 0.165 0.8085q 0.077 0.4125 0.11 0.7865q 0 0.033 0.044 0.033q 0.209 -0.011 0.6545 -0.033q 0.4455 -0.022 0.968 -0.0385q 0.5225 -0.0165 0.9405 -0.0165h 0.946q 0.44 0 0.9405 0.0165q 0.5005 0.0165 0.9185 0.0385q 0.418 0.022 0.605 0.033q 0.033 0 0.033 -0.033q 0.011 -0.374 0.0495 -0.7755q 0.0385 -0.4015 0.0935 -0.7865q -0.077 -0.033 -0.1815 -0.044q -0.1045 -0.011 -0.1925 -0.011q -0.143 0.638 -0.528 0.8855q -0.385 0.2475 -1.001 0.2475h -0.242q -0.297 0 -0.4015 -0.297q -0.1045 -0.297 -0.1045 -0.825v -4.202Z "/></symbol><symbol id="g41A7E59E335106B9E0FA93E70107FB44" overflow="visible"><path d="M 0 0m 1.837 3.146v -1.804q 0 -0.451 0.0495 -0.6545q 0.0495 -0.2035 0.187 -0.264q 0.1375 -0.0605 0.4235 -0.0825q 0.044 -0.044 0.044 -0.176q 0 -0.132 -0.044 -0.187q -0.231 0.011 -0.5005 0.0165q -0.2695 0.0055 -0.5885 0.0055q -0.33 0 -0.6325 -0.0055q -0.3025 -0.0055 -0.5775 -0.0165q -0.044 0.055 -0.044 0.187q 0 0.132 0.044 0.176q 0.319 0.022 0.484 0.0825q 0.165 0.0605 0.2255 0.264q 0.0605 0.2035 0.0605 0.6545v 4.807q 0 0.462 -0.055 0.6435q -0.055 0.1815 -0.209 0.2145q -0.154 0.033 -0.44 0.044q -0.044 0.055 -0.0605 0.1595q -0.0165 0.1045 -0.0055 0.1705q 0.22 0.022 0.528 0.0715q 0.308 0.0495 0.594 0.11q 0.286 0.0605 0.418 0.1155q 0.143 0 0.143 -0.11q 0 0 -0.022 -0.308q -0.022 -0.308 -0.022 -0.847l -0.011 -2.475q 0 -0.11 0.0385 -0.0715q 0.0385 0.0385 0.0715 0.0715q 0.506 0.561 0.9845 0.726q 0.4785 0.165 0.8855 0.165q 0.286 0 0.528 -0.0935q 0.242 -0.0935 0.385 -0.2805q 0.187 -0.253 0.242 -0.638q 0.055 -0.385 0.055 -0.836v -1.639q 0 -0.451 0.055 -0.6545q 0.055 -0.2035 0.2145 -0.2585q 0.1595 -0.055 0.4675 -0.088q 0.044 -0.044 0.044 -0.176q 0 -0.132 -0.044 -0.187q -0.275 0.011 -0.5555 0.0165q -0.2805 0.0055 -0.6105 0.0055q -0.33 0 -0.6105 -0.0055q -0.2805 -0.0055 -0.5115 -0.0165q -0.044 0.055 -0.044 0.187q 0 0.132 0.044 0.176q 0.286 0.033 0.4345 0.088q 0.1485 0.055 0.198 0.2585q 0.0495 0.2035 0.0495 0.6545v 1.672q 0 0.253 -0.022 0.4675q -0.022 0.2145 -0.11 0.3795q -0.099 0.187 -0.2585 0.2915q -0.1595 0.1045 -0.3245 0.1045q -0.33 0 -0.7095 -0.1705q -0.3795 -0.1705 -0.6985 -0.4785q -0.066 -0.077 -0.1265 -0.1815q -0.0605 -0.1045 -0.0605 -0.2805Z "/></symbol><symbol id="gB5B862398E98444E181B37AA0AABBF4C" overflow="visible"><path d="M 0 0m 4.246 1.023q 0.187 -0.011 0.231 -0.176q -0.33 -0.429 -0.7865 -0.693q -0.4565 -0.264 -1.0835 -0.264q -0.594 0 -0.9955 0.187q -0.4015 0.187 -0.6875 0.517q -0.275 0.319 -0.396 0.7425q -0.121 0.4235 -0.121 0.8855q 0 0.627 0.2035 1.111q 0.2035 0.484 0.5335 0.8085q 0.33 0.3245 0.715 0.495q 0.385 0.1705 0.748 0.1705q 0.77 0 1.166 -0.286q 0.396 -0.286 0.5445 -0.726q 0.1485 -0.44 0.1485 -0.902q 0 -0.187 -0.209 -0.187l -2.926 0.022q 0 -0.473 0.0935 -0.8525q 0.0935 -0.3795 0.2585 -0.6545q 0.253 -0.418 0.5775 -0.605q 0.3245 -0.187 0.6215 -0.187q 0.484 0 0.77 0.143q 0.286 0.143 0.594 0.451Z m -2.882 2.079l 1.991 0.033q 0.165 0 0.165 0.154q 0 0.462 -0.143 0.715q -0.143 0.253 -0.352 0.3465q -0.209 0.0935 -0.418 0.0935q -0.099 0 -0.275 -0.0385q -0.176 -0.0385 -0.3685 -0.165q -0.1925 -0.1265 -0.3575 -0.4015q -0.165 -0.275 -0.242 -0.737Z "/></symbol><symbol id="g1865B5D87A146A3189CCF7EEF3310C03" overflow="visible"><path d="M 0 0m 4.378 1.001q -0.407 -0.671 -0.8525 -0.891q -0.4455 -0.22 -0.9405 -0.22q -1.034 0 -1.606 0.6655q -0.572 0.6655 -0.572 1.7325q 0 0.781 0.3355 1.353q 0.3355 0.572 0.858 0.88q 0.5225 0.308 1.0615 0.308q 0.792 0 1.2375 -0.297q 0.4455 -0.297 0.4455 -0.748q 0 -0.253 -0.1815 -0.3685q -0.1815 -0.1155 -0.3575 -0.1155q -0.176 0 -0.286 0.088q -0.11 0.088 -0.132 0.308q -0.022 0.198 -0.0825 0.374q -0.0605 0.176 -0.2145 0.286q -0.154 0.11 -0.484 0.11q -0.539 0 -0.8965 -0.5115q -0.3575 -0.5115 -0.3575 -1.4245q 0 -0.638 0.2035 -1.111q 0.2035 -0.473 0.539 -0.7315q 0.3355 -0.2585 0.7315 -0.2585q 0.352 0 0.6985 0.1815q 0.3465 0.1815 0.6215 0.5445q 0.176 -0.022 0.231 -0.154Z "/></symbol><symbol id="g6404042A797276D46759AA380537FD99" overflow="visible"><path d="M 0 0m 0.451 2.255q 0 0.517 0.154 0.9845q 0.154 0.4675 0.451 0.8195q 0.308 0.352 0.748 0.561q 0.44 0.209 0.979 0.209q 0.627 0 1.0725 -0.22q 0.4455 -0.22 0.715 -0.5885q 0.2695 -0.3685 0.396 -0.803q 0.1265 -0.4345 0.1265 -0.8635q 0 -0.506 -0.176 -0.9955q -0.176 -0.4895 -0.539 -0.8525q -0.286 -0.275 -0.6875 -0.4455q -0.4015 -0.1705 -0.9295 -0.1705q -0.781 0 -1.2925 0.3575q -0.5115 0.3575 -0.7645 0.902q -0.253 0.5445 -0.253 1.1055Z m 2.167 2.189q -0.495 0 -0.759 -0.286q -0.264 -0.286 -0.363 -0.726q -0.099 -0.44 -0.099 -0.924q 0 -0.319 0.077 -0.704q 0.077 -0.385 0.253 -0.7315q 0.176 -0.3465 0.4675 -0.572q 0.2915 -0.2255 0.7205 -0.2255q 0.264 0 0.55 0.143q 0.286 0.143 0.484 0.517q 0.198 0.374 0.198 1.067q 0 1.188 -0.407 1.815q -0.407 0.627 -1.122 0.627Z "/></symbol><symbol id="g1CB9805D2372EBFF7DF2AB4B25C36C02" overflow="visible"><path d="M 0 0m 1.716 4.048q 0.011 -0.165 0.121 -0.044q 0.33 0.363 0.726 0.594q 0.396 0.231 0.781 0.231q 0.561 0 1.001 -0.319q 0.44 -0.319 0.693 -0.8305q 0.253 -0.5115 0.253 -1.0945q 0 -0.671 -0.2145 -1.1825q -0.2145 -0.5115 -0.5995 -0.8965q -0.341 -0.319 -0.748 -0.4675q -0.407 -0.1485 -0.869 -0.1485q -0.539 0 -0.957 0.176q -0.088 0.033 -0.121 0.0275q -0.033 -0.0055 -0.033 -0.1155v -1.188q 0 -0.451 0.0605 -0.6545q 0.0605 -0.2035 0.2585 -0.264q 0.198 -0.0605 0.583 -0.0825q 0.055 -0.044 0.055 -0.176q 0 -0.132 -0.055 -0.187q -0.275 0.011 -0.638 0.0165q -0.363 0.0055 -0.693 0.0055q -0.33 0 -0.638 -0.0055q -0.308 -0.0055 -0.594 -0.0165q -0.044 0.055 -0.044 0.187q 0 0.132 0.044 0.176q 0.341 0.022 0.506 0.077q 0.165 0.055 0.2255 0.264q 0.0605 0.209 0.0605 0.66v 4.697q 0 0.319 -0.055 0.4675q -0.055 0.1485 -0.209 0.2035q -0.154 0.055 -0.451 0.077q -0.011 0.055 -0.022 0.1595q -0.011 0.1045 0 0.1485q 0.572 0.077 0.847 0.154q 0.275 0.077 0.506 0.165q 0.066 0 0.088 -0.0275q 0.022 -0.0275 0.044 -0.0605q 0.044 -0.088 0.0605 -0.2805q 0.0165 -0.1925 0.0275 -0.4455Z m 0.209 -0.407q -0.099 -0.121 -0.1375 -0.2145q -0.0385 -0.0935 -0.0385 -0.2695v -2.002q 0 -0.297 0.0495 -0.4015q 0.0495 -0.1045 0.2145 -0.2585q 0.154 -0.132 0.396 -0.1815q 0.242 -0.0495 0.385 -0.0495q 0.462 0 0.7645 0.187q 0.3025 0.187 0.473 0.4895q 0.1705 0.3025 0.242 0.6545q 0.0715 0.352 0.0715 0.693q 0 0.627 -0.1815 1.0835q -0.1815 0.4565 -0.4785 0.704q -0.297 0.2475 -0.649 0.2475q -0.242 0 -0.5665 -0.209q -0.3245 -0.209 -0.5445 -0.473Z "/></symbol><symbol id="g9123E909261F23E9F8F7C922E250BF87" overflow="visible"><path d="M 0 0m 2.244 -1.76q -0.297 -0.528 -0.594 -0.66q -0.297 -0.132 -0.473 -0.132q -0.22 0 -0.3685 0.1155q -0.1485 0.1155 -0.1485 0.2915q 0 0.11 0.121 0.2915q 0.121 0.1815 0.363 0.1815q 0.088 0 0.1485 -0.0165q 0.0605 -0.0165 0.1705 -0.0165q 0.374 0 0.55 0.319q 0.121 0.253 0.2255 0.495q 0.1045 0.242 0.2035 0.517q 0.055 0.154 0.033 0.352q -0.022 0.198 -0.0825 0.385q -0.0605 0.187 -0.1045 0.297l -1.243 2.893q -0.143 0.341 -0.2585 0.506q -0.1155 0.165 -0.253 0.231q -0.1375 0.066 -0.3575 0.088q -0.044 0.055 -0.044 0.187q 0 0.132 0.044 0.176q 0.165 -0.011 0.3905 -0.0165q 0.2255 -0.0055 0.5005 -0.0055q 0.297 0 0.616 0.0055q 0.319 0.0055 0.627 0.0165q 0.055 -0.044 0.055 -0.176q 0 -0.132 -0.055 -0.187q -0.462 -0.033 -0.484 -0.198q -0.022 -0.165 0.121 -0.517l 0.979 -2.288q 0.132 -0.308 0.264 -0.011l 1.089 2.519q 0.088 0.198 0.022 0.297q -0.066 0.099 -0.22 0.143q -0.154 0.044 -0.33 0.055q -0.044 0.055 -0.044 0.187q 0 0.132 0.044 0.176q 0.253 -0.011 0.506 -0.0165q 0.253 -0.0055 0.495 -0.0055q 0.231 0 0.4235 0.0055q 0.1925 0.0055 0.3575 0.0165q 0.055 -0.044 0.055 -0.176q 0 -0.132 -0.055 -0.187q -0.385 -0.044 -0.5555 -0.198q -0.1705 -0.154 -0.3355 -0.506q -0.286 -0.616 -0.5665 -1.243q -0.2805 -0.627 -0.6105 -1.4025q -0.33 -0.7755 -0.77 -1.8425q -0.099 -0.242 -0.209 -0.4785q -0.11 -0.2365 -0.242 -0.4675Z "/></symbol><symbol id="g20E9A46B7E2E5BA882AC0680512EDEF9" overflow="visible"><path d="M 0 0m 1.87 3.938q 0 -0.099 0.0495 -0.0715q 0.0495 0.0275 0.0825 0.0715q 0.341 0.385 0.77 0.638q 0.429 0.253 0.902 0.253q 0.429 0 0.726 -0.2365q 0.297 -0.2365 0.374 -0.5665q 0.022 -0.077 0.0605 -0.055q 0.0385 0.022 0.0605 0.044q 0.429 0.451 0.913 0.6325q 0.484 0.1815 0.902 0.1815q 0.484 0 0.726 -0.231q 0.242 -0.231 0.3245 -0.627q 0.0825 -0.396 0.0825 -0.891v -1.738q 0 -0.451 0.0495 -0.6545q 0.0495 -0.2035 0.2035 -0.264q 0.154 -0.0605 0.451 -0.0825q 0.044 -0.044 0.044 -0.176q 0 -0.132 -0.044 -0.187q -0.231 0.011 -0.517 0.0165q -0.286 0.0055 -0.616 0.0055q -0.33 0 -0.6215 -0.0055q -0.2915 -0.0055 -0.5005 -0.0165q -0.044 0.055 -0.044 0.187q 0 0.132 0.044 0.176q 0.286 0.022 0.4345 0.0825q 0.1485 0.0605 0.198 0.264q 0.0495 0.2035 0.0495 0.6545v 1.936q 0 0.55 -0.1705 0.7645q -0.1705 0.2145 -0.4895 0.2145q -0.319 0 -0.6875 -0.143q -0.3685 -0.143 -0.7645 -0.583q 0.011 -0.099 0.011 -0.209q 0 -0.11 0 -0.231v -1.749q 0 -0.451 0.0495 -0.6545q 0.0495 -0.2035 0.187 -0.264q 0.1375 -0.0605 0.4125 -0.0825q 0.044 -0.044 0.044 -0.176q 0 -0.132 -0.044 -0.187q -0.209 0.011 -0.4785 0.0165q -0.2695 0.0055 -0.5995 0.0055q -0.33 0 -0.6215 -0.0055q -0.2915 -0.0055 -0.5005 -0.0165q -0.044 0.055 -0.044 0.187q 0 0.132 0.044 0.176q 0.297 0.022 0.4455 0.0825q 0.1485 0.0605 0.1925 0.264q 0.044 0.2035 0.044 0.6545v 1.914q 0 0.55 -0.2035 0.7755q -0.2035 0.2255 -0.5225 0.2255q -0.528 0 -1.188 -0.649q -0.066 -0.077 -0.1265 -0.1815q -0.0605 -0.1045 -0.0605 -0.2805v -1.804q 0 -0.451 0.055 -0.6545q 0.055 -0.2035 0.198 -0.2585q 0.143 -0.055 0.429 -0.088q 0.044 -0.044 0.044 -0.176q 0 -0.132 -0.044 -0.187q -0.253 0.011 -0.517 0.0165q -0.264 0.0055 -0.594 0.0055q -0.33 0 -0.6325 -0.0055q -0.3025 -0.0055 -0.5555 -0.0165q -0.044 0.055 -0.044 0.187q 0 0.132 0.044 0.176q 0.308 0.022 0.4675 0.0825q 0.1595 0.0605 0.22 0.264q 0.0605 0.2035 0.0605 0.6545v 2.145q 0 0.319 -0.055 0.4675q -0.055 0.1485 -0.209 0.2035q -0.154 0.055 -0.451 0.077q -0.011 0.055 -0.022 0.1595q -0.011 0.1045 0 0.1485q 0.572 0.077 0.847 0.154q 0.275 0.077 0.506 0.165q 0.066 0 0.088 -0.0275q 0.022 -0.0275 0.044 -0.0605q 0.044 -0.088 0.0605 -0.341q 0.0165 -0.253 0.0275 -0.495Z "/></symbol><symbol id="g4EBF4F5F198E6444D26FB7CBEB3C4DFA" overflow="visible"><path d="M 0 0m 3.223 0.528h -0.022l -0.22 -0.176q -0.363 -0.275 -0.638 -0.3685q -0.275 -0.0935 -0.561 -0.0935q -0.572 0 -0.979 0.2585q -0.407 0.2585 -0.407 0.9295q 0 0.561 0.5115 0.979q 0.5115 0.418 1.3035 0.616l 0.946 0.231q 0.066 0.022 0.066 0.132q 0 0.627 -0.143 0.9295q -0.143 0.3025 -0.352 0.4015q -0.209 0.099 -0.396 0.099q -0.308 0 -0.594 -0.1045q -0.286 -0.1045 -0.286 -0.3575q 0 -0.088 0.0055 -0.143q 0.0055 -0.055 0.0165 -0.077q 0.033 -0.066 0.033 -0.198q 0 -0.11 -0.1375 -0.242q -0.1375 -0.132 -0.3795 -0.132q -0.385 0 -0.385 0.396q 0 0.319 0.264 0.594q 0.264 0.275 0.682 0.451q 0.418 0.176 0.869 0.176q 0.407 0 0.7865 -0.1375q 0.3795 -0.1375 0.627 -0.539q 0.2475 -0.4015 0.2475 -1.1825v -1.617q 0 -0.374 0.044 -0.6545q 0.044 -0.2805 0.286 -0.2805q 0.11 0 0.2255 0.0605q 0.1155 0.0605 0.1815 0.1155q 0.154 -0.088 0.187 -0.297q -0.176 -0.165 -0.451 -0.286q -0.275 -0.121 -0.594 -0.121q -0.418 0 -0.55 0.1925q -0.132 0.1925 -0.187 0.4455Z m 0 2.035l -0.869 -0.231q -0.605 -0.154 -0.825 -0.495q -0.22 -0.341 -0.22 -0.715q 0 -0.253 0.1925 -0.517q 0.1925 -0.264 0.5995 -0.264q 0.231 0 0.495 0.154q 0.264 0.154 0.473 0.33q 0.066 0.055 0.11 0.1155q 0.044 0.0605 0.044 0.1705v 1.452Z "/></symbol><symbol id="gF54C15F1181BD23D4736C9950CA14518" overflow="visible"><path d="M 0 0m 2.024 3.938q 0.484 0.561 0.9405 0.726q 0.4565 0.165 0.8635 0.165q 0.286 0 0.528 -0.0935q 0.242 -0.0935 0.385 -0.2805q 0.187 -0.253 0.242 -0.638q 0.055 -0.385 0.055 -0.836v -1.639q 0 -0.451 0.055 -0.6545q 0.055 -0.2035 0.2145 -0.2585q 0.1595 -0.055 0.4675 -0.088q 0.044 -0.044 0.044 -0.176q 0 -0.132 -0.044 -0.187q -0.242 0.011 -0.539 0.0165q -0.297 0.0055 -0.627 0.0055q -0.33 0 -0.5995 -0.0055q -0.2695 -0.0055 -0.5225 -0.0165q -0.044 0.055 -0.044 0.187q 0 0.132 0.044 0.176q 0.286 0.033 0.4345 0.088q 0.1485 0.055 0.198 0.2585q 0.0495 0.2035 0.0495 0.6545v 1.672q 0 0.253 -0.022 0.4675q -0.022 0.2145 -0.11 0.3795q -0.099 0.187 -0.2585 0.2915q -0.1595 0.1045 -0.3245 0.1045q -0.319 0 -0.671 -0.1705q -0.352 -0.1705 -0.671 -0.4785q -0.066 -0.077 -0.1265 -0.1815q -0.0605 -0.1045 -0.0605 -0.2805v -1.804q 0 -0.451 0.0495 -0.6545q 0.0495 -0.2035 0.198 -0.2585q 0.1485 -0.055 0.4235 -0.088q 0.055 -0.044 0.055 -0.176q 0 -0.132 -0.055 -0.187q -0.242 0.011 -0.506 0.0165q -0.264 0.0055 -0.594 0.0055q -0.33 0 -0.6435 -0.0055q -0.3135 -0.0055 -0.5665 -0.0165q -0.044 0.055 -0.044 0.187q 0 0.132 0.044 0.176q 0.33 0.033 0.495 0.088q 0.165 0.055 0.22 0.2585q 0.055 0.2035 0.055 0.6545v 2.145q 0 0.319 -0.055 0.4675q -0.055 0.1485 -0.209 0.2035q -0.154 0.055 -0.451 0.077q -0.011 0.055 -0.022 0.1595q -0.011 0.1045 0 0.1485q 0.572 0.077 0.847 0.154q 0.275 0.077 0.506 0.165q 0.066 0 0.088 -0.0275q 0.022 -0.0275 0.044 -0.0605q 0.044 -0.088 0.0605 -0.352q 0.0165 -0.264 0.0275 -0.484q 0 -0.077 0.0385 -0.066q 0.0385 0.011 0.0935 0.066Z "/></symbol><symbol id="gE82678A4A19FA45B18615D792DAC19" overflow="visible"><path d="M 0 0m 3.674 0.55q -0.407 -0.33 -0.7315 -0.495q -0.3245 -0.165 -0.6435 -0.165q -0.594 0 -1.012 0.3025q -0.418 0.3025 -0.638 0.836q -0.22 0.5335 -0.22 1.2045q 0 0.616 0.2035 1.1q 0.2035 0.484 0.5555 0.836q 0.33 0.319 0.7205 0.4895q 0.3905 0.1705 0.9295 0.1705q 0.187 0 0.374 -0.044q 0.187 -0.044 0.3245 -0.0935q 0.1375 -0.0495 0.1595 -0.0495q 0.099 0 0.099 0.099v 1.408q 0 0.462 -0.055 0.6435q -0.055 0.1815 -0.209 0.2145q -0.154 0.033 -0.44 0.044q -0.044 0.055 -0.0605 0.1595q -0.0165 0.1045 -0.0055 0.1705q 0.22 0.022 0.528 0.0715q 0.308 0.0495 0.594 0.11q 0.286 0.0605 0.418 0.1155q 0.143 0 0.143 -0.11q 0 0 -0.022 -0.308q -0.022 -0.308 -0.022 -0.847v -4.983q 0 -0.407 0.1375 -0.583q 0.1375 -0.176 0.6655 -0.22q 0.055 -0.044 0.055 -0.143q 0 -0.099 -0.055 -0.154q -0.506 -0.055 -0.8085 -0.1705q -0.3025 -0.1155 -0.4895 -0.2695q -0.099 -0.044 -0.209 0q 0 0 -0.0495 0.2255q -0.0495 0.2255 -0.0715 0.4235q -0.011 0.055 -0.066 0.0495q -0.055 -0.0055 -0.099 -0.0385Z m 0.121 0.814v 2.09q 0 0.253 -0.033 0.3575q -0.033 0.1045 -0.154 0.2365q -0.165 0.187 -0.3795 0.2915q -0.2145 0.1045 -0.5115 0.1045q -0.165 0 -0.4675 -0.0825q -0.3025 -0.0825 -0.5555 -0.4675q -0.121 -0.176 -0.22 -0.5225q -0.099 -0.3465 -0.099 -0.9405q 0 -0.682 0.1815 -1.133q 0.1815 -0.451 0.4565 -0.671q 0.275 -0.22 0.572 -0.22q 0.429 0 1.034 0.528q 0.121 0.099 0.1485 0.187q 0.0275 0.088 0.0275 0.242Z "/></symbol><symbol id="gBFA3AF3A53A3742BAB37A49E4DCB425E" overflow="visible"><path d="M 0 0m 0.473 4.719h 0.506q 0 0.462 -0.0055 0.704q -0.0055 0.242 -0.011 0.3465q -0.0055 0.1045 -0.011 0.143q -0.0055 0.0385 -0.0055 0.0825q 0 0.055 0.0715 0.088q 0.0715 0.033 0.1705 0.066q 0.187 0.055 0.374 0.154q 0.176 0.099 0.242 0.099q 0.088 0 0.088 -0.099q 0 0 -0.022 -0.308q -0.022 -0.308 -0.022 -0.847v -0.429h 1.32q 0.088 0 0.088 -0.066v -0.22q 0 -0.077 -0.088 -0.11q -0.088 -0.033 -0.176 -0.033h -1.144v -2.783q 0 -0.506 0.0715 -0.759q 0.0715 -0.253 0.2915 -0.253q 0.22 0 0.4565 0.0715q 0.2365 0.0715 0.4455 0.2365q 0.165 -0.011 0.198 -0.187q -0.319 -0.363 -0.7095 -0.5445q -0.3905 -0.1815 -0.7755 -0.1815q -0.374 0 -0.6105 0.253q -0.2365 0.253 -0.2365 0.836v 3.311h -0.649q -0.055 0 -0.055 0.066v 0.143q 0 0.066 0.044 0.143q 0.044 0.077 0.154 0.077Z "/></symbol><symbol id="gB7FF8A9F4534A1F9CBA07EC61100E55A" overflow="visible"><path d="M 0 0m 1.991 1.342q 0 -0.451 0.0605 -0.6545q 0.0605 -0.2035 0.231 -0.264q 0.1705 -0.0605 0.5005 -0.0825q 0.055 -0.044 0.055 -0.176q 0 -0.132 -0.055 -0.187q -0.275 0.011 -0.583 0.0165q -0.308 0.0055 -0.638 0.0055q -0.33 0 -0.6435 -0.0055q -0.3135 -0.0055 -0.5885 -0.0165q -0.044 0.055 -0.044 0.187q 0 0.132 0.044 0.176q 0.341 0.033 0.506 0.088q 0.165 0.055 0.2255 0.2585q 0.0605 0.2035 0.0605 0.6545v 2.145q 0 0.319 -0.055 0.4675q -0.055 0.1485 -0.209 0.198q -0.154 0.0495 -0.451 0.0825q -0.011 0.055 -0.022 0.1595q -0.011 0.1045 0 0.1485q 0.572 0.077 0.924 0.154q 0.352 0.077 0.583 0.165q 0.143 0 0.143 -0.077q 0 0 -0.011 -0.198q -0.011 -0.198 -0.022 -0.4895q -0.011 -0.2915 -0.011 -0.5665v -2.189Z m -1.001 5.247q 0 0.198 0.187 0.363q 0.187 0.165 0.385 0.165q 0.22 0 0.374 -0.187q 0.154 -0.187 0.154 -0.385q 0 -0.176 -0.1705 -0.352q -0.1705 -0.176 -0.4015 -0.176q -0.198 0 -0.363 0.1815q -0.165 0.1815 -0.165 0.3905Z "/></symbol><symbol id="gA8BD7121180A19DAA69DC45BA326E63A" overflow="visible"><path d="M 0 0m 0.528 1.518q 0.055 0.055 0.176 0.0605q 0.121 0.0055 0.165 -0.0495q 0.055 -0.209 0.154 -0.517q 0.099 -0.308 0.275 -0.495q 0.088 -0.088 0.275 -0.176q 0.187 -0.088 0.506 -0.088q 0.209 0 0.4235 0.0825q 0.2145 0.0825 0.363 0.253q 0.1485 0.1705 0.1485 0.4345q 0 0.242 -0.088 0.4125q -0.088 0.1705 -0.33 0.3245q -0.242 0.154 -0.704 0.341q -0.638 0.264 -0.924 0.5775q -0.286 0.3135 -0.286 0.9185q 0 0.352 0.22 0.6325q 0.22 0.2805 0.572 0.44q 0.352 0.1595 0.759 0.1595q 0.429 0 0.8085 -0.0825q 0.3795 -0.0825 0.6325 -0.1265q -0.011 -0.275 -0.0275 -0.572q -0.0165 -0.297 -0.0385 -0.594q -0.044 -0.044 -0.1705 -0.0495q -0.1265 -0.0055 -0.1815 0.0385q -0.066 0.473 -0.2695 0.6875q -0.2035 0.2145 -0.418 0.275q -0.2145 0.0605 -0.3355 0.0605q -0.275 0 -0.5225 -0.1815q -0.2475 -0.1815 -0.2475 -0.5225q 0 -0.451 0.3025 -0.6435q 0.3025 -0.1925 0.7975 -0.3795q 0.561 -0.209 0.924 -0.5555q 0.363 -0.3465 0.363 -0.9075q 0 -0.407 -0.1815 -0.6765q -0.1815 -0.2695 -0.462 -0.4235q -0.2805 -0.154 -0.5775 -0.22q -0.297 -0.066 -0.528 -0.066q -0.308 0 -0.5445 0.033q -0.2365 0.033 -0.4565 0.088q -0.055 0.022 -0.11 0.022q -0.055 0 -0.11 0q -0.11 0 -0.275 -0.033q 0 0.352 -0.022 0.7315q -0.022 0.3795 -0.055 0.7865Z "/></symbol><symbol id="gC1E8867F5D860CEFC9F4719D6F7593E7" overflow="visible"><path d="M 0 0m 1.936 3.938q 0 -0.044 0.0385 -0.077q 0.0385 -0.033 0.0825 0.055q 0.187 0.319 0.5115 0.616q 0.3245 0.297 0.7095 0.297q 0.352 0 0.506 -0.187q 0.154 -0.187 0.154 -0.341q 0 -0.209 -0.1595 -0.3795q -0.1595 -0.1705 -0.3575 -0.1705q -0.143 0 -0.2365 0.088q -0.0935 0.088 -0.1595 0.165q -0.066 0.088 -0.1375 0.1155q -0.0715 0.0275 -0.1485 0.0275q -0.066 0 -0.1595 -0.099q -0.0935 -0.099 -0.187 -0.2255q -0.0935 -0.1265 -0.1595 -0.2145q -0.099 -0.143 -0.1815 -0.33q -0.0825 -0.187 -0.0825 -0.407v -1.529q 0 -0.451 0.066 -0.6545q 0.066 -0.2035 0.2585 -0.2585q 0.1925 -0.055 0.5775 -0.088q 0.055 -0.044 0.055 -0.176q 0 -0.132 -0.055 -0.187q -0.286 0.011 -0.6435 0.0165q -0.3575 0.0055 -0.6875 0.0055q -0.33 0 -0.649 -0.0055q -0.319 -0.0055 -0.605 -0.0165q -0.044 0.055 -0.044 0.187q 0 0.132 0.044 0.176q 0.341 0.022 0.517 0.0825q 0.176 0.0605 0.2365 0.264q 0.0605 0.2035 0.0605 0.6545v 2.145q 0 0.319 -0.055 0.4675q -0.055 0.1485 -0.209 0.2035q -0.154 0.055 -0.451 0.077q -0.011 0.055 -0.022 0.1595q -0.011 0.1045 0 0.1485q 0.572 0.077 0.847 0.154q 0.275 0.077 0.506 0.165q 0.066 0 0.088 -0.0275q 0.022 -0.0275 0.044 -0.0605q 0.044 -0.088 0.0605 -0.297q 0.0165 -0.209 0.0275 -0.539Z "/></symbol><symbol id="g35990208C5C86787361BAC53883799A9" overflow="visible"><path d="M 0 0m 1.925 1.342q 0 -0.451 0.0495 -0.6545q 0.0495 -0.2035 0.2475 -0.264q 0.198 -0.0605 0.627 -0.0825q 0.055 -0.044 0.055 -0.176q 0 -0.132 -0.055 -0.187q -0.286 0.011 -0.6545 0.0165q -0.3685 0.0055 -0.6985 0.0055q -0.33 0 -0.627 -0.0055q -0.297 -0.0055 -0.583 -0.0165q -0.044 0.055 -0.044 0.187q 0 0.132 0.044 0.176q 0.297 0.022 0.4675 0.0825q 0.1705 0.0605 0.2365 0.264q 0.066 0.2035 0.066 0.6545v 2.948h -0.759q -0.055 0 -0.055 0.066v 0.143q 0 0.066 0.055 0.143q 0.055 0.077 0.198 0.077h 0.561v 0.44q 0 0.858 0.297 1.419q 0.297 0.561 0.7425 0.8305q 0.4455 0.2695 0.9075 0.2695q 0.319 0 0.55 -0.0385q 0.231 -0.0385 0.44 -0.1925q 0.352 -0.264 0.352 -0.561q 0 -0.165 -0.154 -0.308q -0.154 -0.143 -0.297 -0.143q -0.176 0 -0.275 0.1045q -0.099 0.1045 -0.165 0.2475q -0.11 0.286 -0.2585 0.4015q -0.1485 0.1155 -0.4015 0.1155q -0.176 0 -0.3795 -0.1375q -0.2035 -0.1375 -0.3465 -0.5555q -0.143 -0.418 -0.143 -1.265v -0.627h 1.188q 0.088 0 0.088 -0.066v -0.22q 0 -0.077 -0.088 -0.11q -0.088 -0.033 -0.165 -0.033h -1.023v -2.948Z "/></symbol><symbol id="g4409E2CB062F4B2A6E5513C033F25B3C" overflow="visible"><path d="M 0 0m 7.678 4.037h -6.798c -0.176 0 -0.264 -0.088 -0.264 -0.253c 0 -0.165 0.088 -0.253 0.264 -0.253h 6.798c 0.176 0 0.264 0.088 0.264 0.253c 0 0.132 -0.121 0.253 -0.264 0.253Z m 0 -2.068h -6.798c -0.176 0 -0.264 -0.088 -0.264 -0.253c 0 -0.165 0.088 -0.253 0.264 -0.253h 6.798c 0.176 0 0.264 0.088 0.264 0.253c 0 0.143 -0.121 0.253 -0.264 0.253Z "/></symbol><symbol id="gC9F44775914DF44E9F60747E9966B3D5" overflow="visible"><path d="M 0 0m 1.144 1.045q 0.33 0 0.528 -0.297q 0.198 -0.297 0.198 -0.792q 0 -0.385 -0.187 -0.682q -0.187 -0.297 -0.484 -0.4895q -0.297 -0.1925 -0.627 -0.2475q -0.099 0.099 -0.099 0.264q 0.286 0.077 0.506 0.242q 0.22 0.165 0.341 0.3465q 0.121 0.1815 0.121 0.2915q 0 0.187 -0.121 0.2585q -0.121 0.0715 -0.275 0.0825q -0.143 0.022 -0.3135 0.121q -0.1705 0.099 -0.1705 0.363q 0 0.231 0.165 0.385q 0.165 0.154 0.418 0.154Z "/></symbol><symbol id="g138C8AF53CF18AB5E1D9DC74E04E09E4" overflow="visible"><path d="M 0 0m 3.575 4.378q -0.044 0.055 -0.044 0.187q 0 0.132 0.044 0.176q 0.209 -0.011 0.473 -0.0165q 0.264 -0.0055 0.539 -0.0055q 0.22 0 0.4125 0.0055q 0.1925 0.0055 0.3575 0.0165q 0.055 -0.044 0.055 -0.176q 0 -0.132 -0.055 -0.187q -0.462 -0.044 -0.627 -0.2475q -0.165 -0.2035 -0.319 -0.5665l -1.463 -3.443q -0.11 -0.253 -0.264 -0.253q -0.187 0 -0.275 0.231l -1.408 3.476q -0.11 0.275 -0.198 0.44q -0.088 0.165 -0.2365 0.2475q -0.1485 0.0825 -0.4455 0.1155q -0.044 0.055 -0.044 0.187q 0 0.132 0.044 0.176q 0.253 -0.011 0.5005 -0.0165q 0.2475 -0.0055 0.5225 -0.0055q 0.275 0 0.5555 0.0055q 0.2805 0.0055 0.5555 0.0165q 0.055 -0.044 0.055 -0.176q 0 -0.132 -0.055 -0.187q -0.44 -0.055 -0.4675 -0.198q -0.0275 -0.143 0.1265 -0.539l 0.792 -2.123q 0.132 -0.341 0.2035 -0.352q 0.0715 -0.011 0.2035 0.319l 0.891 2.156q 0.165 0.418 0.0935 0.561q -0.0715 0.143 -0.5225 0.176Z "/></symbol><symbol id="gDD180C16C8E1BD5E6D015243F425524D" overflow="visible"><path d="M 0 0m 1.837 4.334q 0.253 0.231 0.5665 0.363q 0.3135 0.132 0.6655 0.132q 0.484 0 0.9295 -0.264q 0.4455 -0.264 0.7315 -0.748q 0.286 -0.484 0.286 -1.155q 0 -0.66 -0.22 -1.1715q -0.22 -0.5115 -0.5775 -0.869q -0.3575 -0.3575 -0.7865 -0.5445q -0.429 -0.187 -0.847 -0.187q -0.286 0 -0.5335 0.055q -0.2475 0.055 -0.4345 0.22q -0.088 0.077 -0.154 0.0715q -0.066 -0.0055 -0.143 -0.1045q -0.066 -0.077 -0.1375 -0.1485q -0.0715 -0.0715 -0.1265 -0.1155q -0.099 0 -0.1485 0.033q -0.0495 0.033 -0.0935 0.099q 0.022 0.121 0.033 0.2915q 0.011 0.1705 0.011 0.4895v 5.368q 0 0.462 -0.055 0.6435q -0.055 0.1815 -0.209 0.2145q -0.154 0.033 -0.44 0.044q -0.044 0.055 -0.0605 0.1595q -0.0165 0.1045 -0.0055 0.1705q 0.22 0.022 0.528 0.0715q 0.308 0.0495 0.594 0.11q 0.286 0.0605 0.418 0.1155q 0.143 0 0.143 -0.11q 0 0 -0.022 -0.308q -0.022 -0.308 -0.022 -0.847v -2.024q 0 -0.154 0.11 -0.055Z m 0.077 -0.341q -0.11 -0.099 -0.1485 -0.1925q -0.0385 -0.0935 -0.0385 -0.2695v -2.75q 0.165 -0.209 0.352 -0.363q 0.187 -0.154 0.44 -0.154q 0.528 0 0.869 0.2915q 0.341 0.2915 0.5115 0.7865q 0.1705 0.495 0.1705 1.122q 0 0.539 -0.165 0.9625q -0.165 0.4235 -0.44 0.671q -0.275 0.2475 -0.616 0.2475q -0.242 0 -0.4785 -0.0825q -0.2365 -0.0825 -0.4565 -0.2695Z "/></symbol><symbol id="g47949B58F039273EC9D2EEBA5CD07B6B" overflow="visible"><path d="M 0 0m 1.243 3.487q 0 0.319 -0.055 0.4675q -0.055 0.1485 -0.209 0.2035q -0.154 0.055 -0.451 0.077q -0.011 0.055 -0.022 0.1595q -0.011 0.1045 0 0.1485q 0.572 0.077 0.924 0.154q 0.352 0.077 0.583 0.165q 0.143 0 0.143 -0.077q 0 0 -0.011 -0.198q -0.011 -0.198 -0.022 -0.4895q -0.011 -0.2915 -0.011 -0.5665v -2.321q 0 -1.034 -0.099 -1.683q -0.099 -0.649 -0.2805 -1.023q -0.1815 -0.374 -0.4455 -0.583q -0.308 -0.253 -0.671 -0.3135q -0.363 -0.0605 -0.539 -0.0605q -0.154 0 -0.3795 0.1155q -0.2255 0.1155 -0.2255 0.3575q 0 0.154 0.132 0.286q 0.132 0.132 0.22 0.132q 0.187 0 0.297 -0.099q 0.11 -0.099 0.187 -0.187q 0.121 -0.121 0.341 -0.121q 0.275 0 0.4015 0.4015q 0.1265 0.4015 0.1595 1.0395q 0.033 0.638 0.033 1.364v 2.651Z m -0.154 3.102q 0 0.198 0.187 0.363q 0.187 0.165 0.385 0.165q 0.22 0 0.374 -0.187q 0.154 -0.187 0.154 -0.385q 0 -0.176 -0.1705 -0.352q -0.1705 -0.176 -0.4015 -0.176q -0.198 0 -0.363 0.1815q -0.165 0.1815 -0.165 0.3905Z "/></symbol><symbol id="g38220E3131EA31BE6279C8F5AE0B1E9C" overflow="visible"><path d="M 0 0m 0.627 0.473q 0 0.242 0.1705 0.4125q 0.1705 0.1705 0.4125 0.1705q 0.242 0 0.4125 -0.1705q 0.1705 -0.1705 0.1705 -0.4125q 0 -0.242 -0.1705 -0.4125q -0.1705 -0.1705 -0.4125 -0.1705q -0.242 0 -0.4125 0.1705q -0.1705 0.1705 -0.1705 0.4125Z "/></symbol><symbol id="gF704619BE1FB4AE183D45F896E826F43" overflow="visible"><path d="M 0 0m 1.705 0.869q -0.088 -0.231 0.022 -0.3355q 0.11 -0.1045 0.319 -0.143q 0.209 -0.0385 0.418 -0.0495q 0.055 -0.044 0.055 -0.176q 0 -0.132 -0.055 -0.187q -0.308 0.011 -0.6875 0.0165q -0.3795 0.0055 -0.7205 0.0055q -0.253 0 -0.506 -0.0055q -0.253 -0.0055 -0.473 -0.0165q -0.044 0.055 -0.044 0.187q 0 0.132 0.044 0.176q 0.363 0.022 0.627 0.1485q 0.264 0.1265 0.473 0.6325l 2.497 5.896q 0.11 0 0.297 0.0715q 0.187 0.0715 0.308 0.1485l 2.266 -6.292q 0.143 -0.396 0.407 -0.484q 0.264 -0.088 0.583 -0.121q 0.055 -0.044 0.055 -0.176q 0 -0.132 -0.055 -0.187q -0.286 0.011 -0.5995 0.0165q -0.3135 0.0055 -0.6545 0.0055q -0.319 0 -0.726 -0.0055q -0.407 -0.0055 -0.715 -0.0165q -0.044 0.055 -0.044 0.187q 0 0.132 0.044 0.176q 0.396 0.033 0.6545 0.099q 0.2585 0.066 0.1595 0.352l -0.638 1.859h -2.321q -0.198 0 -0.2695 -0.0385q -0.0715 -0.0385 -0.1155 -0.1485l -0.605 -1.595Z m 1.188 2.244h 1.947l -1.034 2.992h -0.066l -1.122 -2.849q -0.033 -0.077 0.033 -0.11q 0.066 -0.033 0.242 -0.033Z "/></symbol><symbol id="g45E6567A618B9E8D89237F4BAC3479AC" overflow="visible"><path d="M 0 0m 2.387 -0.11q -0.539 0 -0.8525 0.2145q -0.3135 0.2145 -0.44 0.561q -0.1265 0.3465 -0.1265 0.7205v 2.112q 0 0.539 -0.143 0.693q -0.143 0.154 -0.539 0.187q -0.044 0.055 -0.044 0.187q 0 0.132 0.044 0.176q 0.286 -0.011 0.572 -0.0165q 0.286 -0.0055 0.55 -0.0055q 0.275 0 0.385 0.022q 0.088 0 0.088 -0.066q 0 0 -0.011 -0.2145q -0.011 -0.2145 -0.022 -0.484q -0.011 -0.2695 -0.011 -0.4345v -2.002q 0 -0.484 0.154 -0.7315q 0.154 -0.2475 0.3575 -0.3245q 0.2035 -0.077 0.3685 -0.077q 0.209 0 0.5005 0.132q 0.2915 0.132 0.5995 0.396q 0.121 0.099 0.1485 0.187q 0.0275 0.088 0.0275 0.242v 2.123q 0 0.55 -0.1375 0.7095q -0.1375 0.1595 -0.5445 0.1815q -0.044 0.055 -0.044 0.187q 0 0.132 0.044 0.176q 0.286 -0.011 0.572 -0.0165q 0.286 -0.0055 0.55 -0.0055q 0.275 0 0.385 0.022q 0.088 0 0.088 -0.066q 0 0 -0.011 -0.2145q -0.011 -0.2145 -0.022 -0.484q -0.011 -0.2695 -0.011 -0.4345v -2.112q 0 -0.407 0.1375 -0.583q 0.1375 -0.176 0.6655 -0.22q 0.055 -0.044 0.055 -0.143q 0 -0.099 -0.055 -0.154q -0.506 -0.055 -0.8085 -0.1705q -0.3025 -0.1155 -0.4895 -0.2695q -0.099 -0.044 -0.209 0q 0 0 -0.0495 0.22q -0.0495 0.22 -0.0715 0.429q -0.011 0.055 -0.066 0.0495q -0.055 -0.0055 -0.099 -0.0385q -0.803 -0.66 -1.485 -0.66Z "/></symbol><symbol id="g6EFDE41F5574075B950AEF91777E0959" overflow="visible"><path d="M 0 0m 1.045 1.342v 4.807q 0 0.418 -0.044 0.5995q -0.044 0.1815 -0.1925 0.231q -0.1485 0.0495 -0.4675 0.0715q -0.044 0.055 -0.0605 0.1595q -0.0165 0.1045 -0.0055 0.1705q 0.22 0.022 0.528 0.0715q 0.308 0.0495 0.594 0.11q 0.286 0.0605 0.418 0.1155q 0.143 0 0.143 -0.11q 0 0 -0.022 -0.308q -0.022 -0.308 -0.022 -0.847v -5.071q 0 -0.451 0.0605 -0.66q 0.0605 -0.209 0.231 -0.264q 0.1705 -0.055 0.5005 -0.077q 0.055 -0.044 0.055 -0.176q 0 -0.132 -0.055 -0.187q -0.275 0.011 -0.583 0.0165q -0.308 0.0055 -0.638 0.0055q -0.33 0 -0.638 -0.0055q -0.308 -0.0055 -0.594 -0.0165q -0.044 0.055 -0.044 0.187q 0 0.132 0.044 0.176q 0.341 0.022 0.506 0.077q 0.165 0.055 0.2255 0.264q 0.0605 0.209 0.0605 0.66Z "/></symbol><symbol id="g7CA5A814DE99CD852700ECD9D21CDFF4" overflow="visible"><path d="M 0 0m 0.781 4.829q 0.121 -0.044 0.253 -0.077q 0.132 -0.033 0.396 -0.033h 2.013q 0.242 0 0.44 0.011q 0.198 0.011 0.242 0.011q 0.132 0 0.132 -0.077q 0 -0.033 -0.0385 -0.1155q -0.0385 -0.0825 -0.1595 -0.2915q -0.253 -0.418 -0.583 -0.9295q -0.33 -0.5115 -0.6875 -1.045q -0.3575 -0.5335 -0.7095 -1.0285q -0.352 -0.495 -0.66 -0.88h 1.463q 0.429 0.011 0.649 0.2035q 0.22 0.1925 0.429 0.6325l 0.154 0.319q 0.209 0 0.33 -0.066q -0.055 -0.407 -0.154 -0.8085q -0.099 -0.4015 -0.198 -0.6875l -3.432 0.033q -0.253 0 -0.253 0.132q 0 0.044 0.0165 0.0825q 0.0165 0.0385 0.0825 0.1375q 0.429 0.583 0.913 1.2705q 0.484 0.6875 0.9515 1.3915q 0.4675 0.704 0.8415 1.331l -1.408 -0.033q -0.242 -0.011 -0.484 -0.2035q -0.242 -0.1925 -0.407 -0.7975q -0.099 -0.022 -0.1925 -0.011q -0.0935 0.011 -0.1705 0.044q 0.077 0.407 0.1155 0.726q 0.0385 0.319 0.0495 0.693q 0 0.066 0.066 0.066Z "/></symbol><symbol id="gF01F2FDC4FF130235E6F713DB163FD1F" overflow="visible"><path d="M 0 0m 4.884 4.257q -0.088 0 -0.1815 0.066q -0.0935 0.066 -0.1265 0.132q -0.088 0.132 -0.22 0.132q -0.11 0 -0.2475 -0.088q -0.1375 -0.088 -0.1925 -0.176q 0.242 -0.242 0.3575 -0.5005q 0.1155 -0.2585 0.1155 -0.6435q 0 -0.539 -0.264 -0.913q -0.264 -0.374 -0.6875 -0.572q -0.4235 -0.198 -0.9075 -0.198q -0.319 0 -0.561 0.0605q -0.242 0.0605 -0.44 0.1705q -0.198 -0.275 -0.198 -0.638q 0 -0.352 0.231 -0.4895q 0.231 -0.1375 0.473 -0.1375q 0.044 0 0.1265 0.0055q 0.0825 0.0055 0.2035 0.0165q 0.198 0.022 0.396 0.0385q 0.198 0.0165 0.341 0.0165q 0.209 0 0.5005 -0.0165q 0.2915 -0.0165 0.594 -0.0935q 0.3025 -0.077 0.5115 -0.253q 0.242 -0.198 0.363 -0.4125q 0.121 -0.2145 0.121 -0.4785q 0 -0.44 -0.2695 -0.7975q -0.2695 -0.3575 -0.7205 -0.5995q -0.451 -0.242 -0.9955 -0.374q -0.5445 -0.132 -1.1055 -0.132q -0.418 0 -0.825 0.1155q -0.407 0.1155 -0.6655 0.3905q -0.2585 0.275 -0.2585 0.748q 0 0.352 0.231 0.7095q 0.231 0.3575 0.671 0.6215q -0.209 0.11 -0.3575 0.33q -0.1485 0.22 -0.1485 0.517q 0 0.286 0.1265 0.5995q 0.1265 0.3135 0.3575 0.5115q -0.231 0.22 -0.4015 0.506q -0.1705 0.286 -0.1705 0.726q 0 0.506 0.264 0.88q 0.264 0.374 0.6985 0.583q 0.4345 0.209 0.9185 0.209q 0.484 0 0.7645 -0.121q 0.2805 -0.121 0.3795 -0.187q 0.22 0.286 0.5555 0.4235q 0.3355 0.1375 0.5445 0.1375q 0.22 0 0.363 -0.1155q 0.143 -0.1155 0.143 -0.2915q 0 -0.165 -0.1265 -0.2915q -0.1265 -0.1265 -0.2805 -0.1265Z m -1.375 -1.188q 0 0.682 -0.275 1.0505q -0.275 0.3685 -0.792 0.3685q -0.88 0 -0.88 -1.166q 0 -0.352 0.066 -0.693q 0.066 -0.341 0.2805 -0.5665q 0.2145 -0.2255 0.6765 -0.2255q 0.209 0 0.418 0.0935q 0.209 0.0935 0.3575 0.363q 0.1485 0.2695 0.1485 0.7755Z m -2.057 -3.179q -0.242 -0.286 -0.2915 -0.517q -0.0495 -0.231 -0.0495 -0.517q 0 -0.275 0.1485 -0.4785q 0.1485 -0.2035 0.363 -0.3355q 0.2145 -0.132 0.44 -0.1925q 0.2255 -0.0605 0.3685 -0.0605q 0.495 0 0.9955 0.1375q 0.5005 0.1375 0.8305 0.407q 0.33 0.2695 0.33 0.6655q 0 0.22 -0.121 0.363q -0.121 0.143 -0.44 0.319q -0.242 0.132 -0.5775 0.1595q -0.3355 0.0275 -0.7535 0.0275q -0.11 0 -0.33 -0.0165q -0.22 -0.0165 -0.473 -0.0165q -0.242 0 -0.44 0.055Z "/></symbol><symbol id="g17D9EEE4A7ACCA80D5EF39A4548088F8" overflow="visible"><path d="M 0 0m 2.002 3.938l 0.671 -0.99q 0.066 -0.088 0.11 -0.0935q 0.044 -0.0055 0.099 0.0715l 0.715 1.001q 0.198 0.275 0.121 0.3465q -0.077 0.0715 -0.385 0.1045q -0.044 0.055 -0.044 0.187q 0 0.132 0.044 0.176q 0.22 -0.011 0.451 -0.0165q 0.231 -0.0055 0.473 -0.0055q 0.253 0 0.4455 0.0055q 0.1925 0.0055 0.3575 0.0165q 0.055 -0.044 0.055 -0.176q 0 -0.132 -0.055 -0.187q -0.297 -0.022 -0.528 -0.121q -0.231 -0.099 -0.539 -0.484l -0.924 -1.177q -0.066 -0.077 0 -0.165l 0.99 -1.397q 0.22 -0.308 0.374 -0.451q 0.154 -0.143 0.3135 -0.1815q 0.1595 -0.0385 0.4125 -0.0605q 0.055 -0.044 0.055 -0.176q 0 -0.132 -0.055 -0.187q -0.198 0.011 -0.429 0.0165q -0.231 0.0055 -0.55 0.0055q -0.297 0 -0.5665 -0.0055q -0.2695 -0.0055 -0.5225 -0.0165q -0.044 0.055 -0.044 0.187q 0 0.132 0.044 0.176q 0.176 0.022 0.275 0.055q 0.099 0.033 0.077 0.1485q -0.022 0.1155 -0.209 0.3795l -0.638 0.88q -0.055 0.066 -0.0935 0.0715q -0.0385 0.0055 -0.1045 -0.0935l -0.693 -1.001q -0.187 -0.264 -0.121 -0.3355q 0.066 -0.0715 0.363 -0.1045q 0.055 -0.044 0.055 -0.176q 0 -0.132 -0.055 -0.187q -0.209 0.011 -0.44 0.0165q -0.231 0.0055 -0.484 0.0055q -0.242 0 -0.4345 -0.0055q -0.1925 -0.0055 -0.3575 -0.0165q -0.044 0.055 -0.044 0.187q 0 0.132 0.044 0.176q 0.198 0.011 0.3575 0.0495q 0.1595 0.0385 0.3245 0.165q 0.165 0.1265 0.385 0.4015l 0.924 1.188q 0.055 0.066 -0.011 0.165l -0.957 1.397q -0.231 0.341 -0.4675 0.495q -0.2365 0.154 -0.5225 0.176q -0.044 0.055 -0.044 0.187q 0 0.132 0.044 0.176q 0.22 -0.011 0.462 -0.0165q 0.242 -0.0055 0.484 -0.0055q 0.253 0 0.572 0.0055q 0.319 0.0055 0.539 0.0165q 0.055 -0.044 0.055 -0.176q 0 -0.132 -0.055 -0.187q -0.374 -0.044 -0.44 -0.1045q -0.066 -0.0605 0.121 -0.3355Z "/></symbol><symbol id="g4A1522F4BB70BCFE3B34986505278704" overflow="visible"><path d="M 0 0m 2.233 4.378q -0.396 -0.022 -0.44 -0.1815q -0.044 -0.1595 0.11 -0.5555l 0.88 -2.266q 0.11 -0.264 0.154 -0.2585q 0.044 0.0055 0.154 0.2805l 0.77 1.947l -0.066 0.176q -0.154 0.374 -0.308 0.5995q -0.154 0.2255 -0.539 0.2585q -0.044 0.055 -0.044 0.187q 0 0.132 0.044 0.176q 0.253 -0.011 0.506 -0.0165q 0.253 -0.0055 0.462 -0.0055q 0.253 0 0.5555 0.0055q 0.3025 0.0055 0.5445 0.0165q 0.055 -0.044 0.055 -0.176q 0 -0.132 -0.055 -0.187q -0.44 -0.033 -0.495 -0.1595q -0.055 -0.1265 0.099 -0.5115l 0.946 -2.409q 0.066 -0.176 0.1155 -0.1705q 0.0495 0.0055 0.1265 0.2145l 0.924 2.288q 0.077 0.198 0.099 0.3575q 0.022 0.1595 -0.11 0.264q -0.132 0.1045 -0.55 0.1265q -0.044 0.055 -0.044 0.187q 0 0.132 0.044 0.176q 0.253 -0.011 0.5665 -0.0165q 0.3135 -0.0055 0.5555 -0.0055q 0.253 0 0.44 0.0055q 0.187 0.0055 0.352 0.0165q 0.055 -0.044 0.055 -0.176q 0 -0.132 -0.055 -0.187q -0.418 -0.022 -0.605 -0.2365q -0.187 -0.2145 -0.319 -0.5555l -1.441 -3.487q -0.088 -0.231 -0.253 -0.231q -0.165 0 -0.264 0.22l -1.133 2.728l -1.111 -2.706q -0.11 -0.242 -0.264 -0.242q -0.165 0 -0.264 0.22l -1.441 3.553q -0.11 0.286 -0.2145 0.4345q -0.1045 0.1485 -0.2475 0.2145q -0.143 0.066 -0.407 0.088q -0.044 0.055 -0.044 0.187q 0 0.132 0.044 0.176q 0.22 -0.011 0.4565 -0.0165q 0.2365 -0.0055 0.5445 -0.0055q 0.297 0 0.583 0.0055q 0.286 0.0055 0.528 0.0165q 0.055 -0.044 0.055 -0.176q 0 -0.132 -0.055 -0.187Z "/></symbol><symbol id="gD699A19803546147A3F97CE067D84EAA" overflow="visible"><path d="M 0 0m 0.77 3.938q 0 0.242 0.1705 0.4125q 0.1705 0.1705 0.4125 0.1705q 0.242 0 0.4125 -0.1705q 0.1705 -0.1705 0.1705 -0.4125q 0 -0.242 -0.1705 -0.4125q -0.1705 -0.1705 -0.4125 -0.1705q -0.242 0 -0.4125 0.1705q -0.1705 0.1705 -0.1705 0.4125Z m 0 -3.278q 0 0.242 0.1705 0.4125q 0.1705 0.1705 0.4125 0.1705q 0.242 0 0.4125 -0.1705q 0.1705 -0.1705 0.1705 -0.4125q 0 -0.242 -0.1705 -0.4125q -0.1705 -0.1705 -0.4125 -0.1705q -0.242 0 -0.4125 0.1705q -0.1705 0.1705 -0.1705 0.4125Z "/></symbol><symbol id="g437312F88EA8CC1A07B4EDFF2BA6F168" overflow="visible"><path d="M 0 0m 7.3392 6.0104c -0.1496 0 -0.6688 -0.0264 -0.8184 -0.0264c -0.176 0 -0.792 0.0264 -0.968 0.0264c -0.132 0 -0.2024 -0.0704 -0.2024 -0.2112c 0 -0.0792 0.044 -0.1232 0.1408 -0.132c 0.2112 -0.0264 0.3168 -0.0968 0.3168 -0.2288c 0 -0.0792 -0.0528 -0.176 -0.1584 -0.2904l -1.3728 -1.4784c -0.2552 0.5984 -0.5016 1.188 -0.7568 1.7864c 0.0088 0.0176 0.0176 0.0352 0.044 0.0528c 0.0792 0.088 0.2288 0.1408 0.44 0.1584c 0.1408 0.0176 0.2112 0.088 0.2112 0.2024c 0 0.0968 -0.0528 0.1408 -0.1672 0.1408c -0.2112 0 -0.8888 -0.0264 -1.1 -0.0264c -0.1848 0 -0.792 0.0264 -0.9768 0.0264c -0.132 0 -0.1936 -0.0704 -0.1936 -0.2112c 0 -0.088 0.0792 -0.132 0.2376 -0.132c 0.396 0 0.5192 0 0.6248 -0.2552l 1.0208 -2.4024l -1.8304 -1.9624c -0.0264 -0.0264 -0.0616 -0.0616 -0.1056 -0.088c -0.3608 -0.3784 -0.7744 -0.5896 -1.2584 -0.616c -0.1496 -0.0088 -0.2288 -0.088 -0.2288 -0.22c 0.0264 -0.0792 0.0352 -0.1232 0.1496 -0.1232c 0.1496 0 0.6688 0.0264 0.8184 0.0264c 0.1848 0 0.792 -0.0264 0.9768 -0.0264c 0.132 0 0.1936 0.0704 0.1936 0.2112c 0 0.0792 -0.044 0.1232 -0.1408 0.132c -0.2112 0.0176 -0.3168 0.0968 -0.3168 0.2288c 0 0.088 0.0792 0.2112 0.2288 0.3696c 0.5456 0.5808 1.1 1.1616 1.6368 1.7512c 0.2992 -0.7128 0.6072 -1.4168 0.8976 -2.1384c -0.0088 -0.0176 -0.0176 -0.0352 -0.044 -0.0616c -0.0792 -0.0792 -0.22 -0.1232 -0.4312 -0.1496c -0.132 -0.0176 -0.2024 -0.088 -0.2024 -0.2024c 0 -0.0968 0.0528 -0.1408 0.1672 -0.1408l 1.1 0.0264c 0.1848 0 0.8008 -0.0264 0.9592 -0.0264c 0.132 0 0.2024 0.0704 0.2024 0.2024c 0 0.088 -0.0616 0.132 -0.1936 0.1408c -0.2728 0 -0.4488 0.0088 -0.5104 0.044c -0.0616 0.0352 -0.132 0.1408 -0.2024 0.3168l -1.1176 2.6664c 0.5984 0.6336 1.0472 1.1088 1.3376 1.4344c 0.2112 0.22 0.352 0.3696 0.4312 0.4312c 0.3256 0.2728 0.6864 0.4136 1.0824 0.4312c 0.1848 0.0088 0.2288 0.0528 0.2288 0.22c -0.0264 0.0792 -0.0352 0.1232 -0.1496 0.1232Z "/></symbol><symbol id="gE07EA83574030CE9505336F36CB0D245" overflow="visible"><path d="M 0 0m 4.8576 5.5704c 0 0.3872 -0.3784 0.6336 -0.792 0.6336c -0.5456 0 -0.924 -0.352 -1.1264 -1.0472c -0.044 -0.1584 -0.1408 -0.6072 -0.2816 -1.3464h -0.572c -0.1936 0 -0.2904 -0.0088 -0.2904 -0.1936c 0 -0.0968 0.088 -0.1408 0.2728 -0.1408h 0.528l -0.6424 -3.4056c -0.0968 -0.5016 -0.1848 -0.8712 -0.264 -1.1176c -0.1056 -0.3256 -0.2552 -0.4928 -0.4488 -0.4928c -0.132 0 -0.2376 0.0352 -0.3344 0.0968c 0.2816 0.044 0.4224 0.2112 0.4224 0.4928c 0 0.2288 -0.1144 0.3432 -0.352 0.3432c -0.2992 0 -0.5104 -0.264 -0.5104 -0.5632c 0 -0.3872 0.3608 -0.6336 0.7744 -0.6336c 0.22 0 0.4224 0.088 0.5896 0.2728c 0.2816 0.2904 0.5016 0.704 0.66 1.2584c 0.0968 0.3432 0.1848 0.6776 0.2464 1.012l 0.5104 2.7368h 0.7216c 0.2024 0 0.2904 0.0088 0.2904 0.2112c 0 0.0792 -0.088 0.1232 -0.264 0.1232h -0.6776c 0.0528 0.3608 0.2992 1.6896 0.3784 1.8568c 0.088 0.1848 0.2112 0.2728 0.3696 0.2728c 0.132 0 0.2464 -0.0352 0.3432 -0.0968c -0.2728 -0.0616 -0.4136 -0.22 -0.4136 -0.4928c 0 -0.2288 0.1144 -0.3432 0.352 -0.3432c 0.2992 0 0.5104 0.264 0.5104 0.5632Z "/></symbol><symbol id="g9EBE2E3C62DB795A1A17D6A6503D7CC8" overflow="visible"><path d="M 0 0m 5.8432 5.984c -0.1584 0 -0.704 0.0264 -0.8712 0.0264c -0.132 0 -0.2024 -0.0704 -0.2024 -0.2024c 0 -0.0968 0.0528 -0.1408 0.1672 -0.1408c 0.1848 0 0.2816 -0.0528 0.2816 -0.1584c 0 -0.0968 -0.0792 -0.2288 -0.2288 -0.396l -1.98 -2.2792l -0.9328 2.5256c -0.0264 0.0704 -0.044 0.1144 -0.0528 0.1408c 0 0.1144 0.1584 0.1672 0.4752 0.1672c 0.1672 0 0.2464 0.0704 0.2464 0.2112c 0 0.088 -0.0528 0.132 -0.1672 0.132l -1.1 -0.0264c -0.1936 0 -0.8096 0.0264 -0.968 0.0264c -0.132 0 -0.2024 -0.0704 -0.2024 -0.2112c 0 -0.088 0.0792 -0.132 0.2376 -0.132c 0.1584 0 0.2904 -0.0176 0.3696 -0.0352c 0.1672 -0.044 0.176 -0.0704 0.2288 -0.2376l 1.0736 -2.86c 0.0264 -0.0616 0.0352 -0.1056 0.0352 -0.132l -0.1848 -0.7304c -0.1056 -0.4488 -0.176 -0.7304 -0.2112 -0.8448c -0.0616 -0.2376 -0.1232 -0.3784 -0.1848 -0.4224c -0.0616 -0.044 -0.264 -0.0616 -0.5984 -0.0616c -0.1936 -0.0088 -0.2728 -0.0176 -0.2728 -0.2112c 0 -0.088 0.0528 -0.132 0.1584 -0.132l 1.1 0.0264l 1.1088 -0.0264c 0.132 -0.0088 0.2024 0.0616 0.2024 0.2112c 0 0.0616 -0.0264 0.1056 -0.0704 0.1144c -0.088 0.0088 -0.1584 0.0176 -0.2024 0.0176c -0.2904 0.0088 -0.4664 0.0264 -0.5104 0.0528c -0.0176 0.0088 -0.0264 0.0264 -0.0264 0.0616c 0 0.0352 0.044 0.22 0.1232 0.5456l 0.308 1.2232c 0.0264 0.1144 0.0616 0.2024 0.1144 0.2552l 2.156 2.4816l 0.1144 0.1144c 0.2288 0.2288 0.44 0.3872 0.6248 0.4664c 0.1496 0.0704 0.3168 0.1144 0.5016 0.1232c 0.1584 0.0176 0.2024 0.0616 0.2024 0.2024c 0 0.0968 -0.0528 0.1408 -0.1496 0.1408c -0.132 0 -0.5808 -0.0264 -0.7128 -0.0264Z "/></symbol></defs></svg>