<svg viewBox="0 0 505.484083333 126.359" width="505.484083333pt" height="126.359pt" xmlns="http://www.w3.org/2000/svg" xmlns:xlink="http://www.w3.org/1999/xlink" xmlns:h5="http://www.w3.org/1999/xhtml"><g transform="translate(10 10)"><g><path fill="none" stroke="#ffffff" stroke-width="0.7" stroke-linecap="butt" stroke-linejoin="miter" stroke-miterlimit="4" transform="translate(49.753 71.5)" d="M 0 0m 0 4.4v -4.4"/><path fill="none" stroke="#ffffff" stroke-width="0.6" stroke-linecap="butt" stroke-linejoin="miter" stroke-miterlimit="4" transform="translate(14.42925 75.9)" d="M 0 0h 70.6475l -35.32375 28.259l -35.32375 -28.259Z "/><path fill="none" transform="translate(29.8705 78.859)" d="M 0 0h 39.765v 7.755h -39.765v -7.755Z "/><g transform="translate(29.8705 78.859)"><g transform="matrix(1 0 0 -1 0 7.513)"><use xlink:href="#gE000AFAD085E0328CB0AC1E4D48054F2" x="0" y="0" fill="#ffffff" fill-rule="nonzero"/><use xlink:href="#g1F5BA2FCF70A524B9331BCB9F4C41951" x="8.25" y="0" fill="#ffffff" fill-rule="nonzero"/><use xlink:href="#gF7A93543484FC37935C78A5D1F5B2EC6" x="14.366" y="0" fill="#ffffff" fill-rule="nonzero"/><use xlink:href="#g71522B9EEC15CC2FFE8004E0F03DB53B" x="17.424" y="0" fill="#ffffff" fill-rule="nonzero"/><use xlink:href="#gF1018D9EAD0D6A7C348C4064F39364A9" x="20.79" y="0" fill="#ffffff" fill-rule="nonzero"/><use xlink:href="#gA1583A9D47A5AF176809D99838F34700" x="26.29" y="0" fill="#ffffff" fill-rule="nonzero"/><use xlink:href="#g5EF7A2FE47BCD00C1DDF63F6B87CC52A" x="30.602" y="0" fill="#ffffff" fill-rule="nonzero"/></g></g><path fill="none" stroke="#ffffff" stroke-width="0.7" stroke-linecap="butt" stroke-linejoin="miter" stroke-miterlimit="4" transform="translate(49.753 67.1)" d="M 0 0m 0 4.4v -4.4"/><path fill="none" stroke="#ffffff" stroke-width="0.7" stroke-linecap="butt" stroke-linejoin="miter" stroke-miterlimit="4" transform="translate(23.408 49.5)" d="M 0 0m 26.345 17.6c -14.48975 -9.68 -26.345 -7.92 -26.345 -17.6"/><path fill="none" stroke="#ffffff" stroke-width="0.7" stroke-linecap="butt" stroke-linejoin="miter" stroke-miterlimit="4" transform="translate(49.753 49.5)" d="M 0 0m 0 17.6c 6.05 -9.68 11 -7.92 11 -17.6"/><path fill="#ffffff" fill-rule="nonzero" transform="translate(47.553 64.9)" d="M 0 0m 2.2 0c -1.2139248 0 -2.2 0.9860752 -2.2 2.2c 0 1.2139248 0.9860752 2.2 2.2 2.2c 1.2139248 0 2.2 -0.9860752 2.2 -2.2c 0 -1.2139248 -0.9860752 -2.2 -2.2 -2.2Z "/><path fill="none" stroke="#ffffff" stroke-width="0.7" stroke-linecap="butt" stroke-linejoin="miter" stroke-miterlimit="4" transform="translate(23.408 25.85)" d="M 0 0m 0 22v -22"/><path fill="none" transform="translate(2.2 33.033)" d="M 0 0h 19.008v 7.634h -19.008v -7.634Z "/><g transform="translate(2.2 33.033)"><g transform="matrix(1 0 0 -1 0 7.513)"><use xlink:href="#g875A527D3F5A18238C663440BAD0BB81" x="0" y="0" fill="#ffffff" fill-rule="nonzero"/><use xlink:href="#gF7A93543484FC37935C78A5D1F5B2EC6" x="6.116" y="0" fill="#ffffff" fill-rule="nonzero"/><use xlink:href="#g7F9C2D9C2C40A94F5BFD323E733B5D7" x="9.174" y="0" fill="#ffffff" fill-rule="nonzero"/><use xlink:href="#g67E0717D063DE91831D2A23981510B8D" x="14.674" y="0" fill="#ffffff" fill-rule="nonzero"/></g></g><path fill="none" stroke="#ffffff" stroke-width="0.7" stroke-linecap="butt" stroke-linejoin="miter" stroke-miterlimit="4" transform="translate(23.408 47.85)" d="M 0 0m 0 1.65v -1.65"/><path fill="none" stroke="#ffffff" stroke-width="0.7" stroke-linecap="butt" stroke-linejoin="miter" stroke-miterlimit="4" transform="translate(23.408 24.2)" d="M 0 0m 0 1.65v -1.65"/><path fill="none" stroke="#ffffff" stroke-width="0.7" stroke-linecap="butt" stroke-linejoin="miter" stroke-miterlimit="4" transform="translate(60.753 45.1)" d="M 0 0m 0 4.4v -4.4"/><path fill="none" stroke="#ffffff" stroke-width="0.7" stroke-linecap="butt" stroke-linejoin="miter" stroke-miterlimit="4" transform="translate(60.753 24.2)" d="M 0 0m 0 4.4v -4.4"/><path fill="none" stroke="#ffffff" stroke-width="0.6" stroke-linecap="butt" stroke-linejoin="miter" stroke-miterlimit="4" transform="translate(36.608 28.6)" d="M 0 0v 16.5h 48.29v -16.5h -48.29Z "/><path fill="none" transform="translate(38.808 33.033)" d="M 0 0h 43.89v 7.634h -43.89v -7.634Z "/><g transform="translate(38.808 33.033)"><g transform="matrix(1 0 0 -1 0 7.513)"><use xlink:href="#g632970FA01183B4AA6CBF9A77827C064" x="0" y="0" fill="#ffffff" fill-rule="nonzero"/><use xlink:href="#g4F15B44AD1AAE7906B9D9F9C3850F14B" x="7.788" y="0" fill="#ffffff" fill-rule="nonzero"/><use xlink:href="#gA1583A9D47A5AF176809D99838F34700" x="12.672" y="0" fill="#ffffff" fill-rule="nonzero"/><use xlink:href="#g1F5BA2FCF70A524B9331BCB9F4C41951" x="16.984" y="0" fill="#ffffff" fill-rule="nonzero"/><use xlink:href="#gF1018D9EAD0D6A7C348C4064F39364A9" x="23.1" y="0" fill="#ffffff" fill-rule="nonzero"/><use xlink:href="#g53741DD6BA4504AC32BDC384B8913A03" x="28.6" y="0" fill="#ffffff" fill-rule="nonzero"/><use xlink:href="#gC40D96A4B4CE16091BAF0CE1B6EDC323" x="34.716" y="0" fill="#ffffff" fill-rule="nonzero"/><use xlink:href="#gC40D96A4B4CE16091BAF0CE1B6EDC323" x="37.774" y="0" fill="#ffffff" fill-rule="nonzero"/><use xlink:href="#gF7A93543484FC37935C78A5D1F5B2EC6" x="40.832" y="0" fill="#ffffff" fill-rule="nonzero"/></g></g><path fill="none" stroke="#ffffff" stroke-width="0.7" stroke-linecap="butt" stroke-linejoin="miter" stroke-miterlimit="4" transform="translate(23.408 2.2)" d="M 0 0m 0 22v -22"/><path fill="none" stroke="#ffffff" stroke-width="0.7" stroke-linecap="butt" stroke-linejoin="miter" stroke-miterlimit="4" transform="translate(60.753 2.2)" d="M 0 0m 0 22v -22"/><path fill="none" transform="translate(62.953 8.3765)" d="M 0 0h 15.598v 9.647h -15.598v -9.647Z "/><g transform="translate(62.953 8.37649989)"><g transform="matrix(1 0 0 -1 0 7.513)"><use xlink:href="#g71522B9EEC15CC2FFE8004E0F03DB53B" x="0" y="0" fill="#ffffff" fill-rule="nonzero"/><use xlink:href="#gC40D96A4B4CE16091BAF0CE1B6EDC323" x="3.366" y="0" fill="#ffffff" fill-rule="nonzero"/><use xlink:href="#gF7A93543484FC37935C78A5D1F5B2EC6" x="6.424" y="0" fill="#ffffff" fill-rule="nonzero"/><use xlink:href="#gCBAED53C5EB8EDED597F84071DCE9968" x="9.482" y="0" fill="#ffffff" fill-rule="nonzero"/></g></g></g></g><g transform="translate(121.47675 38.9795)"><g><path fill="none" stroke="#ffffff" stroke-width="0.7" stroke-linecap="butt" stroke-linejoin="miter" stroke-miterlimit="4" transform="translate(24.2 41.8)" d="M 0 0m 0 4.4v -4.4"/><path fill="none" stroke="#ffffff" stroke-width="0.7" stroke-linecap="butt" stroke-linejoin="miter" stroke-miterlimit="4" transform="translate(13.2 24.2)" d="M 0 0m 11 17.6c -6.05 -9.68 -11 -7.92 -11 -17.6"/><path fill="none" stroke="#ffffff" stroke-width="0.7" stroke-linecap="butt" stroke-linejoin="miter" stroke-miterlimit="4" transform="translate(24.2 24.2)" d="M 0 0m 0 17.6c 6.05 -9.68 11 -7.92 11 -17.6"/><path fill="#ffffff" fill-rule="nonzero" transform="translate(22 39.6)" d="M 0 0m 2.2 0c -1.2139248 0 -2.2 0.9860752 -2.2 2.2c 0 1.2139248 0.9860752 2.2 2.2 2.2c 1.2139248 0 2.2 -0.9860752 2.2 -2.2c 0 -1.2139248 -0.9860752 -2.2 -2.2 -2.2Z "/><path fill="none" stroke="#ffffff" stroke-width="0.7" stroke-linecap="butt" stroke-linejoin="miter" stroke-miterlimit="4" transform="translate(13.2 19.8)" d="M 0 0m 0 4.4v -4.4"/><path fill="#ffffff" fill-rule="nonzero" transform="translate(11 17.6)" d="M 0 0m 2.2 0c -1.2139248 0 -2.2 0.9860752 -2.2 2.2c 0 1.2139248 0.9860752 2.2 2.2 2.2c 1.2139248 0 2.2 -0.9860752 2.2 -2.2c 0 -1.2139248 -0.9860752 -2.2 -2.2 -2.2Z "/><path fill="none" stroke="#ffffff" stroke-width="0.7" stroke-linecap="butt" stroke-linejoin="miter" stroke-miterlimit="4" transform="translate(35.2 2.2)" d="M 0 0m 0 22v -22"/></g></g><g transform="matrix(1 0 0 -1 172.932305556 65.9295)"><use xlink:href="#g4409E2CB062F4B2A6E5513C033F25B3C" x="0" y="0" fill="#ffffff" fill-rule="nonzero"/></g><g transform="translate(184.545861111 38.9795)"><g><path fill="none" stroke="#ffffff" stroke-width="0.7" stroke-linecap="butt" stroke-linejoin="miter" stroke-miterlimit="4" transform="translate(13.2 2.2)" d="M 0 0m 0 44v -44"/></g></g><g transform="matrix(1 0 0 -1 214.001416667 65.9295)"><use xlink:href="#g4409E2CB062F4B2A6E5513C033F25B3C" x="0" y="0" fill="#ffffff" fill-rule="nonzero"/></g><g transform="translate(225.614972222 38.9795)"><g><path fill="none" stroke="#ffffff" stroke-width="0.7" stroke-linecap="butt" stroke-linejoin="miter" stroke-miterlimit="4" transform="translate(24.2 41.8)" d="M 0 0m 0 4.4v -4.4"/><path fill="none" stroke="#ffffff" stroke-width="0.7" stroke-linecap="butt" stroke-linejoin="miter" stroke-miterlimit="4" transform="translate(13.2 24.2)" d="M 0 0m 11 17.6c -6.05 -9.68 -11 -7.92 -11 -17.6"/><path fill="none" stroke="#ffffff" stroke-width="0.7" stroke-linecap="butt" stroke-linejoin="miter" stroke-miterlimit="4" transform="translate(24.2 24.2)" d="M 0 0m 0 17.6c 6.05 -9.68 11 -7.92 11 -17.6"/><path fill="#ffffff" fill-rule="nonzero" transform="translate(22 39.6)" d="M 0 0m 2.2 0c -1.2139248 0 -2.2 0.9860752 -2.2 2.2c 0 1.2139248 0.9860752 2.2 2.2 2.2c 1.2139248 0 2.2 -0.9860752 2.2 -2.2c 0 -1.2139248 -0.9860752 -2.2 -2.2 -2.2Z "/><path fill="none" stroke="#ffffff" stroke-width="0.7" stroke-linecap="butt" stroke-linejoin="miter" stroke-miterlimit="4" transform="translate(13.2 2.2)" d="M 0 0m 0 22v -22"/><path fill="none" stroke="#ffffff" stroke-width="0.7" stroke-linecap="butt" stroke-linejoin="miter" stroke-miterlimit="4" transform="translate(35.2 19.8)" d="M 0 0m 0 4.4v -4.4"/><path fill="#ffffff" fill-rule="nonzero" transform="translate(33 17.6)" d="M 0 0m 2.2 0c -1.2139248 0 -2.2 0.9860752 -2.2 2.2c 0 1.2139248 0.9860752 2.2 2.2 2.2c 1.2139248 0 2.2 -0.9860752 2.2 -2.2c 0 -1.2139248 -0.9860752 -2.2 -2.2 -2.2Z "/></g></g><g transform="translate(296.014972222 16.9795)"><g><path fill="none" stroke="#ffffff" stroke-width="0.7" stroke-linecap="butt" stroke-linejoin="miter" stroke-miterlimit="4" transform="translate(35.2 68.2)" d="M 0 0m 0 22v -22"/><path fill="none" transform="translate(37.4 75.4435)" d="M 0 0h 9.669v 7.513h -9.669v -7.513Z "/><g transform="translate(37.4 75.4435)"><g transform="matrix(1 0 0 -1 0 7.513)"><use xlink:href="#g481AE727E6F914D5199E83A214575C36" x="0" y="0" fill="#ffffff" fill-rule="nonzero"/></g></g><path fill="none" stroke="#ffffff" stroke-width="0.7" stroke-linecap="butt" stroke-linejoin="miter" stroke-miterlimit="4" transform="translate(57.2 68.2)" d="M 0 0m 0 22v -22"/><path fill="none" transform="translate(59.4 75.438)" d="M 0 0h 8.69v 7.524h -8.69v -7.524Z "/><g transform="translate(59.4 75.438)"><g transform="matrix(1 0 0 -1 0 7.513)"><use xlink:href="#g6F5992FA517D1182004B86DB427D458C" x="0" y="0" fill="#ffffff" fill-rule="nonzero"/></g></g><path fill="none" stroke="#ffffff" stroke-width="0.7" stroke-linecap="butt" stroke-linejoin="miter" stroke-miterlimit="4" transform="translate(35.2 50.6)" d="M 0 0m 11 0c -6.05 9.68 -11 7.92 -11 17.6"/><path fill="none" stroke="#ffffff" stroke-width="0.7" stroke-linecap="butt" stroke-linejoin="miter" stroke-miterlimit="4" transform="translate(46.2 50.6)" d="M 0 0c 6.05 9.68 11 7.92 11 17.6"/><path fill="none" stroke="#ffffff" stroke-width="0.7" stroke-linecap="butt" stroke-linejoin="miter" stroke-miterlimit="4" transform="translate(46.2 46.2)" d="M 0 0m 0 4.4v -4.4"/><path fill="none" stroke="#ffffff" stroke-width="0.7" stroke-linecap="butt" stroke-linejoin="miter" stroke-miterlimit="4" transform="translate(46.2 41.8)" d="M 0 0m 0 4.4v -4.4"/><path fill="none" stroke="#ffffff" stroke-width="0.7" stroke-linecap="butt" stroke-linejoin="miter" stroke-miterlimit="4" transform="translate(24.2 24.2)" d="M 0 0m 22 17.6c -12.1 -9.68 -22 -7.92 -22 -17.6"/><path fill="none" stroke="#ffffff" stroke-width="0.7" stroke-linecap="butt" stroke-linejoin="miter" stroke-miterlimit="4" transform="translate(46.2 24.2)" d="M 0 0m 0 17.6c 12.1 -9.68 22 -7.92 22 -17.6"/><path fill="#ffffff" fill-rule="nonzero" transform="translate(44 39.6)" d="M 0 0m 2.2 0c -1.2139248 0 -2.2 0.9860752 -2.2 2.2c 0 1.2139248 0.9860752 2.2 2.2 2.2c 1.2139248 0 2.2 -0.9860752 2.2 -2.2c 0 -1.2139248 -0.9860752 -2.2 -2.2 -2.2Z "/><path fill="none" stroke="#ffffff" stroke-width="0.7" stroke-linecap="butt" stroke-linejoin="miter" stroke-miterlimit="4" transform="translate(24.2 19.8)" d="M 0 0m 0 4.4v -4.4"/><path fill="none" stroke="#ffffff" stroke-width="0.7" stroke-linecap="butt" stroke-linejoin="miter" stroke-miterlimit="4" transform="translate(13.2 2.2)" d="M 0 0m 11 17.6c -6.05 -9.68 -11 -7.92 -11 -17.6"/><path fill="none" stroke="#ffffff" stroke-width="0.7" stroke-linecap="butt" stroke-linejoin="miter" stroke-miterlimit="4" transform="translate(24.2 2.2)" d="M 0 0m 0 17.6c 6.05 -9.68 11 -7.92 11 -17.6"/><path fill="none" stroke="#ffffff" stroke-width="0.7" stroke-linecap="butt" stroke-linejoin="miter" stroke-miterlimit="4" transform="translate(68.2 19.8)" d="M 0 0m 0 4.4v -4.4"/><path fill="none" stroke="#ffffff" stroke-width="0.7" stroke-linecap="butt" stroke-linejoin="miter" stroke-miterlimit="4" transform="translate(57.2 2.2)" d="M 0 0m 11 17.6c -6.05 -9.68 -11 -7.92 -11 -17.6"/><path fill="none" stroke="#ffffff" stroke-width="0.7" stroke-linecap="butt" stroke-linejoin="miter" stroke-miterlimit="4" transform="translate(68.2 2.2)" d="M 0 0m 0 17.6c 6.05 -9.68 11 -7.92 11 -17.6"/></g></g><g transform="matrix(1 0 0 -1 391.470527778 65.9295)"><use xlink:href="#g4409E2CB062F4B2A6E5513C033F25B3C" x="0" y="0" fill="#ffffff" fill-rule="nonzero"/></g><g transform="translate(403.084083333 38.9795)"><g><path fill="none" stroke="#ffffff" stroke-width="0.7" stroke-linecap="butt" stroke-linejoin="miter" stroke-miterlimit="4" transform="translate(24.2 41.8)" d="M 0 0m 0 4.4v -4.4"/><path fill="none" stroke="#ffffff" stroke-width="0.7" stroke-linecap="butt" stroke-linejoin="miter" stroke-miterlimit="4" transform="translate(13.2 24.2)" d="M 0 0m 11 17.6c -6.05 -9.68 -11 -7.92 -11 -17.6"/><path fill="none" stroke="#ffffff" stroke-width="0.7" stroke-linecap="butt" stroke-linejoin="miter" stroke-miterlimit="4" transform="translate(24.2 24.2)" d="M 0 0m 0 17.6c 6.05 -9.68 11 -7.92 11 -17.6"/><path fill="#ffffff" fill-rule="nonzero" transform="translate(22 39.6)" d="M 0 0m 2.2 0c -1.2139248 0 -2.2 0.9860752 -2.2 2.2c 0 1.2139248 0.9860752 2.2 2.2 2.2c 1.2139248 0 2.2 -0.9860752 2.2 -2.2c 0 -1.2139248 -0.9860752 -2.2 -2.2 -2.2Z "/><path fill="none" stroke="#ffffff" stroke-width="0.7" stroke-linecap="butt" stroke-linejoin="miter" stroke-miterlimit="4" transform="translate(68.2 41.8)" d="M 0 0m 0 4.4v -4.4"/><path fill="none" stroke="#ffffff" stroke-width="0.7" stroke-linecap="butt" stroke-linejoin="miter" stroke-miterlimit="4" transform="translate(57.2 24.2)" d="M 0 0m 11 17.6c -6.05 -9.68 -11 -7.92 -11 -17.6"/><path fill="none" stroke="#ffffff" stroke-width="0.7" stroke-linecap="butt" stroke-linejoin="miter" stroke-miterlimit="4" transform="translate(68.2 24.2)" d="M 0 0m 0 17.6c 6.05 -9.68 11 -7.92 11 -17.6"/><path fill="#ffffff" fill-rule="nonzero" transform="translate(66 39.6)" d="M 0 0m 2.2 0c -1.2139248 0 -2.2 0.9860752 -2.2 2.2c 0 1.2139248 0.9860752 2.2 2.2 2.2c 1.2139248 0 2.2 -0.9860752 2.2 -2.2c 0 -1.2139248 -0.9860752 -2.2 -2.2 -2.2Z "/><path fill="none" stroke="#ffffff" stroke-width="0.7" stroke-linecap="butt" stroke-linejoin="miter" stroke-miterlimit="4" transform="translate(13.2 2.2)" d="M 0 0m 0 22v -22"/><path fill="none" stroke="#ffffff" stroke-width="0.7" stroke-linecap="butt" stroke-linejoin="miter" stroke-miterlimit="4" transform="translate(35.2 2.2)" d="M 0 0m 0 22c 0 -12.1 22 -9.9 22 -22"/><path fill="none" stroke="#ffffff" stroke-width="0.7" stroke-linecap="butt" stroke-linejoin="miter" stroke-miterlimit="4" transform="translate(35.2 2.2)" d="M 0 0m 22 22c 0 -12.1 -22 -9.9 -22 -22"/><path fill="none" stroke="#ffffff" stroke-width="0.7" stroke-linecap="butt" stroke-linejoin="miter" stroke-miterlimit="4" transform="translate(79.2 2.2)" d="M 0 0m 0 22v -22"/></g></g><defs><symbol id="gE000AFAD085E0328CB0AC1E4D48054F2" overflow="visible"><path d="M 0 0m 7.876 7.084v 0.429l -1.32 -0.033l -1.342 0.033v -0.429c 0.539 0 0.869 -0.088 0.99 -0.275c 0.088 -0.143 0.132 -0.297 0.132 -0.484v -3.773c 0 -0.627 -0.176 -1.177 -0.539 -1.628c -0.385 -0.495 -0.891 -0.737 -1.507 -0.737c -0.341 0 -0.693 0.121 -1.056 0.374c -0.462 0.33 -0.693 0.968 -0.693 1.914v 4.147c 0 0.198 0.044 0.319 0.121 0.374c 0.077 0.055 0.308 0.088 0.693 0.088h 0.297v 0.429c -0.275 -0.022 -0.825 -0.033 -1.639 -0.033c -0.814 0 -1.364 0.011 -1.65 0.033v -0.429h 0.308c 0.385 0 0.616 -0.033 0.693 -0.088c 0.077 -0.055 0.121 -0.176 0.121 -0.374v -4.103c 0 -0.77 0.275 -1.419 0.814 -1.958c 0.539 -0.539 1.199 -0.803 1.969 -0.803c 1.32 0 2.277 1.089 2.453 2.288c 0.022 0.143 0.033 0.396 0.033 0.759v 3.476c 0 0.66 0.275 0.803 1.122 0.803Z "/></symbol><symbol id="g1F5BA2FCF70A524B9331BCB9F4C41951" overflow="visible"><path d="M 0 0m 3.454 4.543c 0.495 0 0.748 -0.385 0.748 -1.166v -2.508c 0 -0.209 -0.033 -0.341 -0.11 -0.385c -0.077 -0.044 -0.319 -0.066 -0.726 -0.066v -0.418l 1.265 0.033l 1.254 -0.033v 0.418c -0.352 0 -0.583 0.011 -0.693 0.044c -0.11 0.033 -0.154 0.11 -0.154 0.242v 2.057c 0 0.517 -0.011 0.88 -0.044 1.089c -0.11 0.671 -0.605 1.012 -1.474 1.012c -0.693 0 -1.21 -0.33 -1.551 -0.99v 0.99l -1.617 -0.121v -0.418c 0.396 0 0.638 -0.033 0.726 -0.099c 0.088 -0.066 0.121 -0.209 0.121 -0.462v -2.893c 0 -0.209 -0.044 -0.341 -0.121 -0.385c -0.077 -0.044 -0.319 -0.066 -0.726 -0.066v -0.418l 1.265 0.033l 1.254 -0.033v 0.418c -0.407 0 -0.638 0.022 -0.715 0.066c -0.077 0.044 -0.121 0.176 -0.121 0.385v 1.98c 0 0.891 0.561 1.694 1.419 1.694Z "/></symbol><symbol id="gF7A93543484FC37935C78A5D1F5B2EC6" overflow="visible"><path d="M 0 0m 2.134 6.611c 0 0.33 -0.275 0.616 -0.605 0.616c -0.33 0 -0.616 -0.286 -0.616 -0.616c 0 -0.33 0.275 -0.627 0.605 -0.627c 0.341 0 0.616 0.286 0.616 0.627Z m -0.561 -6.578l 1.144 -0.033v 0.429c -0.363 0 -0.583 0.022 -0.649 0.066c -0.066 0.044 -0.088 0.165 -0.088 0.363v 4.037l -1.573 -0.132v -0.418c 0.363 0 0.594 -0.033 0.671 -0.088c 0.077 -0.055 0.11 -0.209 0.11 -0.462v -2.926c 0 -0.209 -0.033 -0.341 -0.11 -0.385c -0.077 -0.044 -0.319 -0.055 -0.715 -0.055v -0.429Z "/></symbol><symbol id="g71522B9EEC15CC2FFE8004E0F03DB53B" overflow="visible"><path d="M 0 0m 2.915 7.755c -0.979 0 -1.705 -0.792 -1.705 -1.771v -1.21h -0.847v -0.418h 0.847v -3.487c 0 -0.209 -0.033 -0.341 -0.11 -0.385c -0.077 -0.044 -0.319 -0.055 -0.726 -0.055v -0.429l 1.265 0.033c 0.462 0.011 0.935 0 1.408 -0.033v 0.429h -0.264c -0.363 0 -0.594 0.022 -0.671 0.077c -0.077 0.055 -0.11 0.187 -0.11 0.385v 3.465h 1.232v 0.418h -1.265v 1.221c 0 0.66 0.341 1.43 0.946 1.43c 0.088 0 0.165 -0.011 0.242 -0.033c -0.165 -0.088 -0.253 -0.242 -0.253 -0.451c 0 -0.341 0.165 -0.517 0.506 -0.517c 0.341 0 0.517 0.176 0.517 0.528c 0 0.495 -0.517 0.803 -1.012 0.803Z "/></symbol><symbol id="gF1018D9EAD0D6A7C348C4064F39364A9" overflow="visible"><path d="M 0 0m 2.739 -0.121c 0.682 0 1.254 0.242 1.727 0.726c 0.473 0.484 0.715 1.067 0.715 1.749c 0 0.693 -0.231 1.298 -0.693 1.804c -0.462 0.506 -1.045 0.77 -1.738 0.77c -0.693 0 -1.265 -0.264 -1.738 -0.77c -0.473 -0.506 -0.704 -1.111 -0.704 -1.804c 0 -0.682 0.231 -1.265 0.704 -1.749c 0.473 -0.484 1.056 -0.726 1.727 -0.726Z m 0.011 0.352c -0.528 0 -0.924 0.231 -1.199 0.704c -0.176 0.308 -0.264 0.814 -0.264 1.507c 0 0.671 0.088 1.155 0.253 1.463c 0.264 0.473 0.66 0.704 1.199 0.704c 0.517 0 0.913 -0.231 1.188 -0.682c 0.187 -0.308 0.275 -0.803 0.275 -1.485c 0 -1.276 -0.374 -2.211 -1.452 -2.211Z "/></symbol><symbol id="gA1583A9D47A5AF176809D99838F34700" overflow="visible"><path d="M 0 0m 4.004 4.158c 0 0.429 -0.407 0.704 -0.836 0.704c -0.561 0 -0.99 -0.33 -1.276 -1.001v 1.001l -1.584 -0.121v -0.418c 0.385 0 0.616 -0.033 0.704 -0.099c 0.088 -0.066 0.132 -0.209 0.132 -0.462v -2.893c 0 -0.209 -0.033 -0.341 -0.11 -0.385c -0.077 -0.044 -0.319 -0.066 -0.726 -0.066v -0.418l 1.265 0.033c 0.462 0.011 0.935 0 1.408 -0.033v 0.418h -0.264c -0.363 0 -0.594 0.033 -0.671 0.088c -0.077 0.055 -0.11 0.187 -0.11 0.385v 1.661c 0 0.473 0.088 0.902 0.253 1.265c 0.22 0.473 0.539 0.715 0.968 0.726c -0.11 -0.11 -0.165 -0.242 -0.165 -0.396c 0 -0.341 0.165 -0.506 0.506 -0.506c 0.297 0 0.506 0.231 0.506 0.517Z "/></symbol><symbol id="g5EF7A2FE47BCD00C1DDF63F6B87CC52A" overflow="visible"><path d="M 0 0m 3.465 4.543c 0.506 0 0.759 -0.385 0.759 -1.166v -2.508c 0 -0.209 -0.033 -0.341 -0.11 -0.385c -0.077 -0.044 -0.33 -0.066 -0.737 -0.066v -0.418l 1.276 0.033l 1.265 -0.033v 0.418c -0.407 0 -0.649 0.022 -0.726 0.066c -0.077 0.044 -0.121 0.176 -0.121 0.385v 1.98c 0 0.88 0.572 1.694 1.419 1.694c 0.517 0 0.77 -0.385 0.77 -1.166v -2.508c 0 -0.209 -0.044 -0.341 -0.121 -0.385c -0.077 -0.044 -0.33 -0.066 -0.737 -0.066v -0.418l 1.276 0.033l 1.265 -0.033v 0.418c -0.352 0 -0.583 0.011 -0.693 0.044c -0.11 0.033 -0.154 0.11 -0.154 0.242v 2.057c 0 0.517 -0.022 0.88 -0.055 1.089c -0.11 0.671 -0.605 1.012 -1.474 1.012c -0.693 0 -1.21 -0.319 -1.562 -0.968c -0.154 0.649 -0.638 0.968 -1.463 0.968c -0.693 0 -1.221 -0.33 -1.573 -0.99v 0.99l -1.617 -0.121v -0.418c 0.396 0 0.638 -0.033 0.726 -0.099c 0.088 -0.066 0.121 -0.209 0.121 -0.462v -2.893c 0 -0.209 -0.044 -0.341 -0.121 -0.385c -0.077 -0.044 -0.319 -0.066 -0.726 -0.066v -0.418l 1.276 0.033l 1.265 -0.033v 0.418c -0.407 0 -0.66 0.022 -0.737 0.066c -0.077 0.044 -0.121 0.176 -0.121 0.385v 1.98c 0 0.891 0.583 1.694 1.43 1.694Z "/></symbol><symbol id="g875A527D3F5A18238C663440BAD0BB81" overflow="visible"><path d="M 0 0m 3.278 -0.121c 0.682 0 1.265 0.242 1.738 0.737c 0.473 0.495 0.715 1.078 0.715 1.771c 0 0.671 -0.22 1.265 -0.671 1.76c -0.451 0.495 -1.001 0.748 -1.672 0.748c -0.539 0 -1.023 -0.209 -1.43 -0.638v 3.377l -1.65 -0.121v -0.418c 0.396 0 0.638 -0.033 0.726 -0.099c 0.088 -0.066 0.121 -0.22 0.121 -0.473v -6.523h 0.341l 0.363 0.638c 0.352 -0.506 0.825 -0.759 1.419 -0.759Z m -0.044 0.33c -0.451 0 -0.825 0.209 -1.1 0.638c -0.099 0.143 -0.143 0.297 -0.143 0.44v 2.233c 0 0.143 0.033 0.264 0.11 0.374c 0.319 0.451 0.726 0.671 1.243 0.671c 0.451 0 0.814 -0.22 1.1 -0.671c 0.198 -0.33 0.297 -0.825 0.297 -1.496c 0 -1.188 -0.418 -2.189 -1.507 -2.189Z "/></symbol><symbol id="g7F9C2D9C2C40A94F5BFD323E733B5D7" overflow="visible"><path d="M 0 0m 5.313 1.001v 0.649h -0.352v -0.649c 0 -0.429 -0.121 -0.649 -0.352 -0.649c -0.22 0 -0.352 0.275 -0.352 0.495v 2.167c 0 0.385 -0.044 0.671 -0.121 0.869c -0.264 0.649 -1.023 1.045 -1.793 1.045c -0.847 0 -1.683 -0.473 -1.683 -1.265c 0 -0.363 0.187 -0.55 0.55 -0.55c 0.363 0 0.539 0.176 0.539 0.539c 0 0.319 -0.165 0.506 -0.506 0.539c 0.242 0.275 0.605 0.418 1.078 0.418c 0.682 0 1.1 -0.627 1.1 -1.342v -0.363c -0.858 -0.055 -1.507 -0.187 -1.958 -0.396c -0.737 -0.341 -1.111 -0.814 -1.111 -1.441c 0 -0.286 0.11 -0.528 0.319 -0.715c 0.352 -0.319 0.836 -0.473 1.452 -0.473c 0.649 0 1.111 0.275 1.397 0.836c 0.077 -0.418 0.385 -0.781 0.858 -0.781c 0.583 0 0.935 0.462 0.935 1.067Z m -3.113 -0.803c -0.506 0 -0.924 0.374 -0.924 0.88c 0 1.023 1.067 1.463 2.145 1.518v -1.045c 0 -0.737 -0.484 -1.353 -1.221 -1.353Z "/></symbol><symbol id="g67E0717D063DE91831D2A23981510B8D" overflow="visible"><path d="M 0 0m 3.96 1.43c 0 0.836 -0.572 1.364 -1.705 1.584c -0.517 0.099 -0.847 0.22 -1.023 0.341c -0.176 0.121 -0.264 0.297 -0.264 0.506c 0 0.517 0.385 0.77 1.155 0.77c 0.748 0 1.155 -0.418 1.21 -1.265c 0.011 -0.088 0.066 -0.132 0.176 -0.132c 0.121 0 0.187 0.099 0.187 0.297v 1.089c 0 0.209 -0.055 0.308 -0.165 0.308c -0.121 0 -0.286 -0.198 -0.396 -0.286c -0.275 0.187 -0.616 0.286 -1.012 0.286c -0.979 0 -1.76 -0.44 -1.76 -1.375c 0 -0.374 0.154 -0.693 0.473 -0.946c 0.385 -0.319 0.748 -0.385 1.441 -0.506c 0.715 -0.143 1.078 -0.462 1.078 -0.957c 0 -0.627 -0.385 -0.946 -1.166 -0.946c -0.759 0 -1.243 0.506 -1.452 1.507c -0.033 0.143 -0.088 0.22 -0.187 0.22c -0.121 0 -0.187 -0.11 -0.187 -0.319v -1.419c 0 -0.209 0.055 -0.308 0.165 -0.308c 0.033 0 0.088 0.033 0.176 0.11c 0.198 0.176 0.11 0.143 0.308 0.341c 0.319 -0.297 0.715 -0.451 1.177 -0.451c 1.045 0 1.771 0.539 1.771 1.551Z "/></symbol><symbol id="g632970FA01183B4AA6CBF9A77827C064" overflow="visible"><path d="M 0 0m 5.258 3.938c 0.77 0.198 1.606 0.814 1.606 1.694c 0 0.583 -0.275 1.045 -0.825 1.408c -0.473 0.319 -1.023 0.473 -1.628 0.473h -4.015v -0.429h 0.308c 0.385 0 0.616 -0.033 0.693 -0.088c 0.077 -0.055 0.121 -0.176 0.121 -0.374v -5.731c 0 -0.198 -0.044 -0.33 -0.121 -0.385c -0.077 -0.055 -0.308 -0.077 -0.693 -0.077h -0.308v -0.429h 4.301c 0.627 0 1.188 0.176 1.672 0.528c 0.528 0.385 0.792 0.891 0.792 1.507c 0 1.023 -0.968 1.727 -1.903 1.903Z m 0.473 1.694c 0 -0.924 -0.77 -1.562 -1.694 -1.562h -1.529v 2.629c 0 0.396 0.055 0.385 0.484 0.385h 1.342c 0.814 0 1.397 -0.638 1.397 -1.452Z m 0.253 -3.586v -0.286c -0.022 -0.253 -0.165 -0.539 -0.44 -0.836c -0.286 -0.33 -0.682 -0.495 -1.199 -0.495h -1.353c -0.429 0 -0.484 -0.011 -0.484 0.385v 2.926h 1.991c 0.891 0 1.485 -0.77 1.485 -1.694Z "/></symbol><symbol id="g4F15B44AD1AAE7906B9D9F9C3850F14B" overflow="visible"><path d="M 0 0m 4.565 2.761c 0 1.265 -0.737 2.167 -1.969 2.167c -0.66 0 -1.21 -0.253 -1.661 -0.77c -0.418 -0.484 -0.627 -1.067 -0.627 -1.738c 0 -0.693 0.231 -1.276 0.693 -1.782c 0.462 -0.506 1.034 -0.759 1.716 -0.759c 0.627 0 1.111 0.22 1.441 0.649c 0.275 0.363 0.407 0.627 0.407 0.803c 0 0.11 -0.066 0.165 -0.187 0.165c -0.088 0 -0.143 -0.055 -0.176 -0.176c -0.242 -0.726 -0.715 -1.089 -1.419 -1.089c -0.495 0 -0.88 0.231 -1.177 0.704c -0.209 0.341 -0.308 0.858 -0.319 1.562h 2.97c 0.242 0 0.308 0.022 0.308 0.264Z m -0.979 1.078c 0.121 -0.363 0.176 -0.715 0.176 -1.034h -2.464c 0.033 0.726 0.22 1.221 0.55 1.474c 0.275 0.22 0.517 0.33 0.748 0.33c 0.495 0 0.825 -0.253 0.99 -0.77Z "/></symbol><symbol id="g53741DD6BA4504AC32BDC384B8913A03" overflow="visible"><path d="M 0 0m 2.937 0.198c -0.759 0 -0.902 0.319 -0.902 1.034v 3.63l -1.683 -0.121v -0.418c 0.429 0 0.682 -0.044 0.748 -0.121c 0.066 -0.077 0.099 -0.352 0.099 -0.836v -1.617c 0 -0.429 0.033 -0.759 0.11 -1.012c 0.165 -0.572 0.77 -0.858 1.573 -0.858c 0.594 0 1.045 0.275 1.353 0.836v -0.836l 1.65 0.121v 0.418c -0.396 0 -0.627 0.022 -0.715 0.088c -0.088 0.066 -0.132 0.22 -0.132 0.473v 3.883l -1.672 -0.121v -0.418c 0.385 0 0.616 -0.033 0.704 -0.099c 0.088 -0.066 0.132 -0.209 0.132 -0.462v -1.925c 0 -0.869 -0.462 -1.639 -1.265 -1.639Z "/></symbol><symbol id="gC40D96A4B4CE16091BAF0CE1B6EDC323" overflow="visible"><path d="M 0 0m 1.584 0.033l 1.221 -0.033v 0.429c -0.396 0 -0.638 0.011 -0.715 0.055c -0.077 0.044 -0.11 0.176 -0.11 0.385v 6.765l -1.617 -0.121v -0.418c 0.385 0 0.627 -0.033 0.704 -0.099c 0.077 -0.066 0.121 -0.22 0.121 -0.473v -5.654c 0 -0.209 -0.033 -0.341 -0.11 -0.385c -0.077 -0.044 -0.319 -0.055 -0.715 -0.055v -0.429Z "/></symbol><symbol id="gCBAED53C5EB8EDED597F84071DCE9968" overflow="visible"><path d="M 0 0m 3.278 -0.143c 0.682 0 1.265 0.242 1.738 0.737c 0.473 0.495 0.715 1.078 0.715 1.771c 0 0.671 -0.22 1.243 -0.649 1.727c -0.451 0.517 -1.001 0.77 -1.661 0.77c -0.561 0 -1.045 -0.22 -1.463 -0.649v 0.649l -1.65 -0.121v -0.418c 0.407 0 0.649 -0.022 0.726 -0.077c 0.077 -0.055 0.121 -0.198 0.121 -0.429v -5.082c 0 -0.209 -0.044 -0.341 -0.121 -0.385c -0.077 -0.044 -0.319 -0.055 -0.726 -0.055v -0.429l 1.254 0.033l 1.265 -0.033v 0.429c -0.407 0 -0.638 0.011 -0.715 0.055c -0.077 0.044 -0.121 0.176 -0.121 0.385v 1.749c 0.242 -0.341 0.715 -0.627 1.287 -0.627Z m 0.066 4.642c 0.451 0 0.803 -0.253 1.078 -0.759c 0.209 -0.429 0.319 -0.88 0.319 -1.375c 0 -0.517 -0.121 -0.99 -0.363 -1.419c -0.286 -0.517 -0.671 -0.77 -1.144 -0.77c -0.462 0 -0.825 0.22 -1.1 0.649c -0.099 0.143 -0.143 0.286 -0.143 0.429v 2.409c 0.319 0.561 0.77 0.836 1.353 0.836Z "/></symbol><symbol id="g4409E2CB062F4B2A6E5513C033F25B3C" overflow="visible"><path d="M 0 0m 7.678 4.037h -6.798c -0.176 0 -0.264 -0.088 -0.264 -0.253c 0 -0.165 0.088 -0.253 0.264 -0.253h 6.798c 0.176 0 0.264 0.088 0.264 0.253c 0 0.132 -0.121 0.253 -0.264 0.253Z m 0 -2.068h -6.798c -0.176 0 -0.264 -0.088 -0.264 -0.253c 0 -0.165 0.088 -0.253 0.264 -0.253h 6.798c 0.176 0 0.264 0.088 0.264 0.253c 0 0.143 -0.121 0.253 -0.264 0.253Z "/></symbol><symbol id="g481AE727E6F914D5199E83A214575C36" overflow="visible"><path d="M 0 0m 9.174 7.513c -0.187 0 -0.836 -0.033 -1.023 -0.033c -0.22 0 -0.99 0.033 -1.21 0.033c -0.165 0 -0.253 -0.088 -0.253 -0.264c 0 -0.099 0.055 -0.154 0.176 -0.165c 0.264 -0.033 0.396 -0.121 0.396 -0.286c 0 -0.099 -0.066 -0.22 -0.198 -0.363l -1.716 -1.848c -0.319 0.748 -0.627 1.485 -0.946 2.233c 0.011 0.022 0.022 0.044 0.055 0.066c 0.099 0.11 0.286 0.176 0.55 0.198c 0.176 0.022 0.264 0.11 0.264 0.253c 0 0.121 -0.066 0.176 -0.209 0.176c -0.264 0 -1.111 -0.033 -1.375 -0.033c -0.231 0 -0.99 0.033 -1.221 0.033c -0.165 0 -0.242 -0.088 -0.242 -0.264c 0 -0.11 0.099 -0.165 0.297 -0.165c 0.495 0 0.649 0 0.781 -0.319l 1.276 -3.003l -2.288 -2.453c -0.033 -0.033 -0.077 -0.077 -0.132 -0.11c -0.451 -0.473 -0.968 -0.737 -1.573 -0.77c -0.187 -0.011 -0.286 -0.11 -0.286 -0.275c 0.033 -0.099 0.044 -0.154 0.187 -0.154c 0.187 0 0.836 0.033 1.023 0.033c 0.231 0 0.99 -0.033 1.221 -0.033c 0.165 0 0.242 0.088 0.242 0.264c 0 0.099 -0.055 0.154 -0.176 0.165c -0.264 0.022 -0.396 0.121 -0.396 0.286c 0 0.11 0.099 0.264 0.286 0.462c 0.682 0.726 1.375 1.452 2.046 2.189c 0.374 -0.891 0.759 -1.771 1.122 -2.673c -0.011 -0.022 -0.022 -0.044 -0.055 -0.077c -0.099 -0.099 -0.275 -0.154 -0.539 -0.187c -0.165 -0.022 -0.253 -0.11 -0.253 -0.253c 0 -0.121 0.066 -0.176 0.209 -0.176l 1.375 0.033c 0.231 0 1.001 -0.033 1.199 -0.033c 0.165 0 0.253 0.088 0.253 0.253c 0 0.11 -0.077 0.165 -0.242 0.176c -0.341 0 -0.561 0.011 -0.638 0.055c -0.077 0.044 -0.165 0.176 -0.253 0.396l -1.397 3.333c 0.748 0.792 1.309 1.386 1.672 1.793c 0.264 0.275 0.44 0.462 0.539 0.539c 0.407 0.341 0.858 0.517 1.353 0.539c 0.231 0.011 0.286 0.066 0.286 0.275c -0.033 0.099 -0.044 0.154 -0.187 0.154Z "/></symbol><symbol id="g6F5992FA517D1182004B86DB427D458C" overflow="visible"><path d="M 0 0m 7.304 7.48c -0.198 0 -0.88 0.033 -1.089 0.033c -0.165 0 -0.253 -0.088 -0.253 -0.253c 0 -0.121 0.066 -0.176 0.209 -0.176c 0.231 0 0.352 -0.066 0.352 -0.198c 0 -0.121 -0.099 -0.286 -0.286 -0.495l -2.475 -2.849l -1.166 3.157c -0.033 0.088 -0.055 0.143 -0.066 0.176c 0 0.143 0.198 0.209 0.594 0.209c 0.209 0 0.308 0.088 0.308 0.264c 0 0.11 -0.066 0.165 -0.209 0.165l -1.375 -0.033c -0.242 0 -1.012 0.033 -1.21 0.033c -0.165 0 -0.253 -0.088 -0.253 -0.264c 0 -0.11 0.099 -0.165 0.297 -0.165c 0.198 0 0.363 -0.022 0.462 -0.044c 0.209 -0.055 0.22 -0.088 0.286 -0.297l 1.342 -3.575c 0.033 -0.077 0.044 -0.132 0.044 -0.165l -0.231 -0.913c -0.132 -0.561 -0.22 -0.913 -0.264 -1.056c -0.077 -0.297 -0.154 -0.473 -0.231 -0.528c -0.077 -0.055 -0.33 -0.077 -0.748 -0.077c -0.242 -0.011 -0.341 -0.022 -0.341 -0.264c 0 -0.11 0.066 -0.165 0.198 -0.165l 1.375 0.033l 1.386 -0.033c 0.165 -0.011 0.253 0.077 0.253 0.264c 0 0.077 -0.033 0.132 -0.088 0.143c -0.11 0.011 -0.198 0.022 -0.253 0.022c -0.363 0.011 -0.583 0.033 -0.638 0.066c -0.022 0.011 -0.033 0.033 -0.033 0.077c 0 0.044 0.055 0.275 0.154 0.682l 0.385 1.529c 0.033 0.143 0.077 0.253 0.143 0.319l 2.695 3.102l 0.143 0.143c 0.286 0.286 0.55 0.484 0.781 0.583c 0.187 0.088 0.396 0.143 0.627 0.154c 0.198 0.022 0.253 0.077 0.253 0.253c 0 0.121 -0.066 0.176 -0.187 0.176c -0.165 0 -0.726 -0.033 -0.891 -0.033Z "/></symbol></defs></svg>